<?xml version="1.0" standalone="no"?><!-- Generator: Gravit.io --><svg xmlns="http://www.w3.org/2000/svg" xmlns:xlink="http://www.w3.org/1999/xlink" style="isolation:isolate" viewBox="0 0 196 196" width="196" height="196"><defs><clipPath id="_clipPath_h8K9EgE6bh0evkg6zZDhWnz31NbHHz1M"><rect width="196" height="196"/></clipPath></defs><g clip-path="url(#_clipPath_h8K9EgE6bh0evkg6zZDhWnz31NbHHz1M)"><path d=" M 0 0 L 196 0 L 196 196 L 0 196 L 0 0 Z " fill="rgb(238,123,34)"/><g><path d=" M 81.311 22.546 C 74.635 22.381 67.96 22.214 61.285 22.045 C 58.03 21.966 51.328 20.371 48.33 22.174 C 36.406 29.35 17.135 42.499 15.875 57.829 C 14.58 73.655 25.33 83.184 38.992 89.141 C 48.393 93.239 54.669 101.253 64.321 104.876 C 69.117 106.679 73.83 105.027 78.657 104.15 C 81.126 103.699 80.078 99.944 77.62 100.39 C 73.278 101.18 69.669 102.279 65.357 101.119 C 55.911 98.58 53.356 88.705 44.331 86.824 C 23.87 82.554 12.991 62.702 26.55 45.296 C 31.744 38.628 44.662 25.528 52.186 25.72 L 81.311 26.445 C 83.829 26.508 83.82 22.609 81.311 22.546 L 81.311 22.546 Z " fill="rgb(255,255,255)"/><path d=" M 80.328 26.784 C 71.415 31.563 65.605 41.043 67.53 51.202 C 68 53.668 71.757 52.624 71.29 50.166 C 69.692 41.739 75.04 34.041 82.297 30.148 C 84.512 28.96 82.545 25.597 80.328 26.784 L 80.328 26.784 Z  M 58.024 36.902 C 48.165 35.425 37.762 36.854 28.748 41.066 C 26.472 42.132 28.452 45.489 30.716 44.433 C 38.69 40.708 48.242 39.352 56.985 40.662 C 59.446 41.03 60.502 37.276 58.024 36.902 Z  M 53.203 48.884 C 43.283 49.613 33.43 53.361 25.613 59.464 C 23.633 61.01 26.413 63.75 28.37 62.221 C 35.301 56.809 44.406 53.429 53.203 52.783 C 55.695 52.601 55.712 48.701 53.203 48.884 Z  M 55.077 59.153 C 45.892 60.563 39.473 69.36 36.779 77.545 C 35.99 79.94 39.755 80.957 40.538 78.584 C 42.848 71.567 48.256 64.117 56.113 62.915 C 58.591 62.533 57.535 58.778 55.077 59.153 L 55.077 59.153 Z  M 60.587 71.924 L 53.445 86.205 C 52.323 88.447 55.686 90.423 56.808 88.173 L 63.95 73.888 C 65.073 71.646 61.709 69.673 60.587 71.924 Z  M 81.816 75.805 C 82.621 80.564 84.353 90.212 79.936 93.75 C 79.383 94.191 79.306 95.011 79.432 95.646 C 80.394 100.422 78.378 103.136 73.835 108.476 C 64.061 119.964 48.928 124.669 34.492 126.509 C 32.468 126.765 31.653 129.78 33.972 130.336 C 53.308 134.969 70.951 127.755 83.954 113.157 C 87.059 109.675 84.945 109.577 87.024 116.1 C 89.046 122.442 89.649 129.274 89.952 135.884 C 90.393 145.632 87.816 154.366 77.865 157.906 C 65.178 162.426 59.087 141.531 70.427 143.792 C 71.862 144.08 73.522 145.125 74.779 146.01 C 75.541 146.551 76.493 146.222 77.139 145.708 C 78.46 144.65 79.784 143.592 81.106 142.536 C 81.804 141.975 81.781 140.888 81.411 140.169 C 71.316 120.665 45.847 135.807 51.882 155.107 C 57.011 171.499 78.518 179.311 93.503 171.83 C 118.294 159.447 114.27 137.78 113.341 114.345 C 113.219 111.306 110.388 108.544 113.199 112.235 C 115.958 115.86 119.228 119.247 122.842 122.02 C 134.658 131.085 147.55 133.998 162.037 130.535 C 164.355 129.98 163.541 126.964 161.519 126.705 C 146.55 124.803 132.658 119.895 122.175 108.675 C 117.477 103.646 115.662 100.41 116.576 95.846 C 116.705 95.208 116.627 94.39 116.075 93.948 C 111.658 90.411 113.389 80.761 114.196 76.004 C 114.611 73.544 110.855 72.493 110.437 74.965 C 104.895 107.67 130.668 126.676 161.519 130.603 L 160.998 126.776 C 142.873 131.111 124.98 123.302 114.794 107.832 C 114.315 107.106 113.46 106.679 112.592 106.935 C 107.172 108.524 109.548 117.017 109.716 121.234 C 110.174 132.793 112.12 145.005 107.105 155.836 C 99.165 172.989 69.828 176.156 58.947 160.455 C 50.865 148.793 60.186 123.829 75.67 138.714 C 79.865 142.747 76.493 141.947 73.354 140.754 C 65.061 137.598 58.346 142.48 59.75 151.288 C 61.425 161.805 73.215 163.691 81.482 160.745 C 93.264 156.55 94.17 142.929 93.691 132.4 C 93.423 126.557 92.748 109.154 85.004 107.531 C 84.07 107.336 83.356 107.675 82.804 108.427 C 71.734 123.492 53.246 130.948 35.01 126.576 C 34.836 127.853 34.663 129.132 34.492 130.407 C 65.337 126.477 91.122 107.473 85.574 74.769 C 85.156 72.296 81.399 73.347 81.816 75.805 L 81.816 75.805 Z " fill="rgb(255,255,255)"/><path d=" M 114.697 26.645 C 124.405 26.4 134.114 26.158 143.822 25.916 C 151.674 25.722 163.72 38.985 169.458 45.493 C 185.888 64.132 169.939 81.099 151.677 87.02 C 143.118 89.796 139.63 97.947 130.653 101.319 C 126.607 102.836 122.454 101.327 118.388 100.587 C 115.933 100.14 114.882 103.899 117.351 104.346 C 121.603 105.118 125.527 106.334 129.796 105.585 C 140.618 103.686 146.408 92.824 156.552 89.535 C 170.637 84.969 181.36 72.988 180.135 58.026 C 178.882 42.772 160.043 30.213 148.407 22.823 C 145.402 20.915 140.715 22.097 137.369 22.179 C 129.81 22.368 122.256 22.558 114.697 22.746 C 112.188 22.809 112.182 26.708 114.697 26.645 L 114.697 26.645 Z " fill="rgb(255,255,255)"/><path d=" M 113.715 30.345 C 120.971 34.238 126.319 41.937 124.722 50.364 C 124.257 52.822 128.011 53.868 128.481 51.402 C 130.405 41.243 124.596 31.763 115.679 26.978 C 113.467 25.791 111.498 29.157 113.715 30.345 L 113.715 30.345 Z  M 139.024 40.858 C 147.766 39.549 157.321 40.907 165.298 44.632 C 167.559 45.691 169.538 42.331 167.263 41.266 C 158.249 37.054 147.846 35.624 137.984 37.099 C 135.506 37.469 136.562 41.226 139.024 40.858 L 139.024 40.858 Z  M 142.811 52.982 C 151.608 53.625 160.712 57.006 167.642 62.417 C 169.599 63.946 172.377 61.206 170.399 59.66 C 162.584 53.558 152.73 49.809 142.811 49.083 C 140.302 48.901 140.319 52.8 142.811 52.982 L 142.811 52.982 Z  M 139.9 63.112 C 147.755 64.317 153.163 71.767 155.469 78.784 C 156.253 81.159 160.018 80.142 159.232 77.747 C 156.538 69.56 150.122 60.763 140.937 59.353 C 138.48 58.976 137.423 62.733 139.9 63.112 Z  M 132.06 74.088 L 139.202 88.373 C 140.328 90.622 143.688 88.646 142.569 86.407 L 135.427 72.122 C 134.301 69.873 130.941 71.849 132.06 74.088 Z  M 118.502 57.388 C 116.73 58.664 115.306 60.497 114.441 62.491 C 114.221 62.993 112.832 67.985 114.99 67.033 C 116.335 66.441 117.049 63.804 117.559 62.596 C 118.192 61.087 118.78 59.559 119.319 58.014 C 119.558 57.336 118.482 57.046 118.245 57.721 C 117.368 60.216 116.445 62.762 115.175 65.089 C 115.056 65.302 114.928 65.51 114.791 65.712 C 114.406 66.29 114.591 65.681 114.908 66.137 C 114.323 65.291 115.363 63.095 115.742 62.315 C 116.474 60.803 117.693 59.338 119.062 58.35 C 119.641 57.935 119.085 56.966 118.502 57.388 L 118.502 57.388 Z  M 77.235 57.789 C 78.529 58.72 79.582 60.042 80.374 61.406 C 81.009 62.5 81.71 64.226 81.417 65.507 C 81.442 65.396 81.961 65.695 81.602 65.279 C 81.411 65.057 81.272 64.778 81.126 64.527 C 79.822 62.234 78.931 59.646 78.053 57.163 C 77.817 56.488 76.741 56.778 76.979 57.456 C 77.495 58.914 78.05 60.358 78.637 61.788 C 79.224 63.209 79.876 65.547 81.243 66.444 C 81.673 66.729 82.197 66.478 82.399 66.048 C 82.946 64.872 82.345 63.175 81.918 62.064 C 81.129 60.019 79.577 58.108 77.8 56.827 C 77.213 56.408 76.66 57.373 77.235 57.789 Z " fill="rgb(255,255,255)"/></g></g></svg>