<svg xmlns="http://www.w3.org/2000/svg" viewBox="0 0 194 54.892"><defs><style>.a{fill:#fff;}</style></defs><title>Princeton University logo (white)</title><path class="a" d="M193.689,9.9a.6.6,0,0,0-.059-.276h-.448c-.975,0-1.6.042-3.357.042-.6,0-1.5-.042-1.717-.042H187.6c-.059.042-.08.255-.08.332a.516.516,0,0,0,.1.332,8.36,8.36,0,0,1,2.01.566,3.813,3.813,0,0,1,.566,1.993c.018.29.038.584.038,1.385v4.077a7.637,7.637,0,0,1-.038.839c-.332-.371-.8-1.07-1.58-1.951l-6.521-7.22a1.354,1.354,0,0,0-.29-.255c-.157,0-.43-.018-.584-.018-1.252,0-3.514-.059-3.846-.059a.737.737,0,0,0-.08.273,3.348,3.348,0,0,0,.059.371,2.7,2.7,0,0,1,1.465.741,6.662,6.662,0,0,1,1.031,1.231,1.7,1.7,0,0,1,.081.626c0,1.014-.059,2.437-.059,3.8v3.962a8.61,8.61,0,0,1-.115,1.482,4.089,4.089,0,0,1-2.049,1,1.067,1.067,0,0,0-.077.35c0,.059.018.255.056.276h.371c.392,0,1.29-.059,1.874-.059.86,0,1.444.059,2.245.059h1.171c.077-.021.1-.255.1-.332a.915.915,0,0,0-.059-.315,3.738,3.738,0,0,1-2.343-1.21,11.051,11.051,0,0,1-.252-2.419c0-.622-.021-1.483-.021-2.633,0-1.545.021-2.892.038-3.573.119.136.255.311.353.43l9.017,10.129c.094.1.448.115.545.115a.474.474,0,0,0,.234-.038,2.215,2.215,0,0,0,.175-.878c0-.563-.021-1.15-.021-1.444V13.449c0-2.441,1.154-3.126,2.5-3.182a.841.841,0,0,0,.077-.371m-22.367,6.2c0,2.951-.818,5.546-1.93,6.462a3.165,3.165,0,0,1-2.07.7,2.918,2.918,0,0,1-2.594-1.308,10.377,10.377,0,0,1-1.154-5.073c0-2.713.7-4.839,1.951-5.874a3.116,3.116,0,0,1,2.032-.762,3.249,3.249,0,0,1,2.654,1.346,7.523,7.523,0,0,1,1.112,4.507m3.531.374a6.539,6.539,0,0,0-3.472-6.07,7.547,7.547,0,0,0-3.71-1,7.943,7.943,0,0,0-6.577,3.629,7.463,7.463,0,0,0-1.129,3.944,7.26,7.26,0,0,0,2.79,5.717,7.325,7.325,0,0,0,4.451,1.405,8.08,8.08,0,0,0,2.965-.566,7.008,7.008,0,0,0,2.713-1.853,7.539,7.539,0,0,0,1.969-5.21M157.7,14.012V10.033c0-.294-.115-.371-.409-.371-.587,0-3.668.077-6.79.077-2.423,0-4.433-.038-5.524-.038h-1.448c-.252,0-.329.056-.329.332V13.76a.558.558,0,0,0,.311.077,1.629,1.629,0,0,0,.43-.038,6.568,6.568,0,0,1,2.734-3.259c.584-.059,1.734-.077,2.045-.077.021.213.042.9.059,1.717.021,1.4.021,2.01.021,5.325,0,2.871-.021,4.161-.059,4.472-.077.545.021.955-2.322,1.052a1.121,1.121,0,0,0-.059.448,1.59,1.59,0,0,0,.021.315h.759c.724,0,2.419-.08,3.126-.08.563,0,2.381.059,3.57.059h.545a.979.979,0,0,0,.059-.409.732.732,0,0,0-.077-.35,4.044,4.044,0,0,1-2.01-.371,5.991,5.991,0,0,1-.178-1.465c-.018-2.109-.038-2.909-.038-4.315,0-1.815.021-3.042.021-6.42.273,0,.9-.021,1.482,0a3.8,3.8,0,0,1,2.322,1.482A9.658,9.658,0,0,1,157,14.054a1.089,1.089,0,0,0,.332.035.981.981,0,0,0,.371-.077m-16.822,6.343a4.241,4.241,0,0,0-.021-.563.435.435,0,0,0-.294-.059,1.641,1.641,0,0,0-.43.038,7.436,7.436,0,0,1-2.147,2.986,3.02,3.02,0,0,1-1.465.213h-1.6a6.842,6.842,0,0,1-1.287-.1c-.294-.056-.6-.524-.741-.835a2.05,2.05,0,0,1-.217-1.231V16.53h.724a3.1,3.1,0,0,1,1.189.276,1.771,1.771,0,0,1,.878.818,6.673,6.673,0,0,1,.332,1.619,1.319,1.319,0,0,0,.51.077.688.688,0,0,0,.388-.095c0-.528-.119-1.951-.119-2.734,0-.975.136-2.322.2-3.025a.847.847,0,0,0-.388-.077,1.424,1.424,0,0,0-.507.059c-.059.269-.276,1.091-.315,1.15a2.346,2.346,0,0,1-1.325,1.014,5.083,5.083,0,0,1-1.133.157H132.7V13.953c0-1.871.038-2.476.056-2.829.021-.234.059-.486.08-.661a7.709,7.709,0,0,1,1.171-.042c1.129,0,1.657.021,1.832.021a2.18,2.18,0,0,1,1.252.392,8.2,8.2,0,0,1,1.871,2.42,1.578,1.578,0,0,0,.413.038c.115,0,.136-.038.294-.119,0-1.189-.08-2.731-.119-3.22-.021-.2-.059-.252-.448-.252-.157,0-.9-.038-1.678-.038-1.112,0-1.563.018-3.262.018-.916,0-2.811.021-3.612.021-1.168,0-2.164-.038-2.671-.038h-.664a.636.636,0,0,0-.1.311.863.863,0,0,0,.1.388,9.948,9.948,0,0,1,1.427.217,1.6,1.6,0,0,1,.7,1.269c.042.409.059,1.542.059,2.441v4.018c0,.822-.018,2.01-.038,2.5a5.615,5.615,0,0,1-.427,1.853,5.138,5.138,0,0,1-1.759.294,1.129,1.129,0,0,0-.1.43.721.721,0,0,0,.1.35h.643c.626,0,2.927-.059,3.455-.059.489,0,1.427.038,2.556.038.626,0,2.462.119,6.4.119a1.658,1.658,0,0,0,.528-.038.582.582,0,0,0,.077-.315c.042-.388.042-1.542.042-3.122m-16.51.685a.651.651,0,0,0-.664-.468c-.042,0-.1.018-.136.018a4.609,4.609,0,0,1-3.927,2.283A4.27,4.27,0,0,1,115.7,20.3a10.659,10.659,0,0,1-.6-3.549,8.6,8.6,0,0,1,.584-3.416c.86-2.262,2.109-2.969,3.633-2.969a3.994,3.994,0,0,1,3.122,1.759,8.715,8.715,0,0,1,.993,2.364,2.07,2.07,0,0,0,.43.056.989.989,0,0,0,.468-.175c-.017-.217-.213-1.717-.213-2.185,0-.587.154-1.542.154-1.913a1.588,1.588,0,0,0-.759-.217,4.02,4.02,0,0,0-.664.8,6.436,6.436,0,0,0-4.332-1.385,6.676,6.676,0,0,0-4.9,1.93,7.422,7.422,0,0,0-2.087,5.5,7.138,7.138,0,0,0,2.752,5.836,7.762,7.762,0,0,0,4.549,1.311,6.049,6.049,0,0,0,5-2.091,4.066,4.066,0,0,0,.549-.916M109.182,9.9a.64.64,0,0,0-.059-.276h-.451c-.975,0-1.6.042-3.357.042-.6,0-1.5-.042-1.717-.042h-.507c-.059.042-.08.255-.08.332a.5.5,0,0,0,.1.332,8.451,8.451,0,0,1,2.011.566,3.847,3.847,0,0,1,.563,1.993c.021.29.042.584.042,1.385v4.077a6.64,6.64,0,0,1-.042.839c-.329-.371-.8-1.07-1.58-1.951l-6.514-7.22a1.358,1.358,0,0,0-.294-.255c-.157,0-.43-.018-.584-.018-1.252,0-3.514-.059-3.846-.059a.73.73,0,0,0-.077.273,3.328,3.328,0,0,0,.056.371,2.7,2.7,0,0,1,1.465.741,6.548,6.548,0,0,1,1.035,1.231,1.714,1.714,0,0,1,.077.626c0,1.014-.056,2.437-.056,3.8v3.962a8.542,8.542,0,0,1-.119,1.482,4.089,4.089,0,0,1-2.049,1,1.167,1.167,0,0,0-.077.35c0,.059.018.255.056.276h.371c.392,0,1.29-.059,1.874-.059.86,0,1.444.059,2.245.059h1.168c.077-.021.1-.255.1-.332a.911.911,0,0,0-.059-.315,3.731,3.731,0,0,1-2.339-1.21,11.278,11.278,0,0,1-.252-2.419c0-.622-.021-1.483-.021-2.633,0-1.545.021-2.892.038-3.573.119.136.255.311.353.43l9.014,10.129a1.1,1.1,0,0,0,.545.115.461.461,0,0,0,.234-.038,2.216,2.216,0,0,0,.175-.878c0-.563-.021-1.15-.021-1.444V13.449c0-2.441,1.154-3.126,2.5-3.182a.846.846,0,0,0,.08-.371m-19.3,13.524a1.277,1.277,0,0,0-.059-.392,13.548,13.548,0,0,1-1.444-.175,3.084,3.084,0,0,1-.664-1.5c-.017-.937-.038-2.871-.038-4.682v-4.8a1.527,1.527,0,0,1,.353-1.052,3.325,3.325,0,0,1,1.738-.507,1.254,1.254,0,0,0,.056-.371.577.577,0,0,0-.1-.315h-.566c-.818,0-2.731.1-3.4.1-.409,0-2.322-.056-3.182-.077h-.427a.476.476,0,0,0-.1.332,2.479,2.479,0,0,0,.038.371,4.119,4.119,0,0,1,1.521.273,2.156,2.156,0,0,1,.647,1.661c.018.371.035,1.171.056,2.965.021.976.038,2.343.038,3.472,0,.566-.038,1.836-.059,2.521a3.364,3.364,0,0,1-.269,1.171c-.234.192-.472.545-1.9.643a1.5,1.5,0,0,0-.059.409c0,.157.038.234.038.332h.332c.783,0,2.734-.1,3.748-.1.294,0,2.322.059,2.965.059H89.8a.782.782,0,0,0,.077-.332M74.227,13.233a3.041,3.041,0,0,1-1.773,2.832,6.754,6.754,0,0,1-1.6.154,4.809,4.809,0,0,1-.724-.038l-.021-1.661V10.928a.626.626,0,0,1,.119-.43,2,2,0,0,1,.822-.115c1.521,0,2.185.136,2.731,1.056a3.453,3.453,0,0,1,.448,1.794m5.661,10.21a.957.957,0,0,0-.1-.413,3.024,3.024,0,0,1-1.287-.252,4.287,4.287,0,0,1-.332-.489,20.966,20.966,0,0,0-.839-2.245,7.381,7.381,0,0,0-1.444-2.322,6,6,0,0,0-1.465-.643c-.311-.119-.566-.217-.8-.315a6.853,6.853,0,0,1,.8-.115,3.465,3.465,0,0,0,2.147-.724,3.073,3.073,0,0,0,1.21-2.535,3.747,3.747,0,0,0-2.441-3.552A9.513,9.513,0,0,0,73,9.621c-1.465,0-3.514.136-4.489.136-.294,0-1.993-.038-2.675-.038-.294,0-1.035-.038-1.15-.038a1.144,1.144,0,0,0-.1.371,2.043,2.043,0,0,0,.038.353c.332.038.937.115,1.248.175a2.276,2.276,0,0,1,.818,1.052,48.859,48.859,0,0,1,.119,4.979c0,1.989.021,4.294-.077,5.035a1.5,1.5,0,0,1-.8,1.308,11.056,11.056,0,0,1-1.112.136.95.95,0,0,0-.1.388,1.229,1.229,0,0,0,.077.315c.276,0,3.262-.059,3.885-.059,1.248,0,2.3.059,3.416.059a.851.851,0,0,0,.077-.294,1.183,1.183,0,0,0-.077-.409c-.392-.038-.878-.157-1.094-.2a1.467,1.467,0,0,1-.839-1.385L70.151,17a4.861,4.861,0,0,1,.507-.018,1.951,1.951,0,0,1,1.032.311,3.736,3.736,0,0,1,1.545,1.423,11.9,11.9,0,0,1,1.227,4.2c.059.409.213.759.587.8.154.021,1.189.059,1.93.059h2.794a.531.531,0,0,0,.115-.329M58.692,13.33a3.208,3.208,0,0,1-.993,2.441,3.2,3.2,0,0,1-2.031.524,6.351,6.351,0,0,1-.839-.038c-.157-.017-.255-.038-.255-.136l.021-5.717a8.316,8.316,0,0,1,1.133-.1c1.325,0,2.147.332,2.535,1.15a4.157,4.157,0,0,1,.43,1.874m3.493.077A3.738,3.738,0,0,0,60.1,10.012a9.751,9.751,0,0,0-3.493-.448c-1.5,0-3.846.115-4.878.115C51,9.68,49.909,9.6,49.3,9.6a.709.709,0,0,0-.1.311.948.948,0,0,0,.059.392c.371.115.975.213,1.367.311a1.673,1.673,0,0,1,.524,1.112c.059.685.1,1.542.1,3.025,0,4.119-.018,6.287-.077,6.755a1.663,1.663,0,0,1-1.112,1.385,10.841,10.841,0,0,1-1.133.2,2.264,2.264,0,0,0-.038.409.559.559,0,0,0,.056.273c.626,0,2.462-.077,3.164-.077,1.738,0,3.514.077,4.234.077h.49a.548.548,0,0,0,.059-.311.915.915,0,0,0-.042-.353,3.169,3.169,0,0,1-1.832-.622,1.669,1.669,0,0,1-.392-1.154l-.059-4.29c1.171.077,2.42.115,3.1.115a7.446,7.446,0,0,0,2.262-.35,3.584,3.584,0,0,0,2.245-3.4" transform="translate(0)"/><path class="a" d="M194,31.665c0-.115-.077-.154-.115-.234-.8,0-1.853.059-2.266.059-.993,0-2.2-.08-2.731-.08-.059.119-.08.14-.08.238a.687.687,0,0,0,.042.234c.566.115,1.385.252,1.542.524a1.428,1.428,0,0,1,.175.762,1.872,1.872,0,0,1-.119.724c-.175.486-.545,1.248-1.07,2.322-.9,1.815-1.465,2.944-1.78,3.4-.507-.86-1.636-3.122-1.909-3.706l-1.095-2.381a1.824,1.824,0,0,1-.077-.528,1.286,1.286,0,0,1,.077-.507c.175-.353.78-.392,1.6-.49a.881.881,0,0,0,.056-.294c0-.136-.056-.1-.115-.192h-.35c-1.311,0-.92.056-3.164.056-.955,0-2.109-.056-2.262-.056-.08.136-.119.154-.119.29a.4.4,0,0,0,.08.234c1.3.315,1.7.545,1.832.8l3.416,6.7a7.629,7.629,0,0,1,.626,1.462,10.873,10.873,0,0,1,.157,2.343,1.657,1.657,0,0,1-.626,1.5,9.286,9.286,0,0,1-1.563.255.471.471,0,0,0-.1.273.766.766,0,0,0,.059.234c1,0,2.032-.021,2.615-.021.409,0,1.035.021,2.185.038.664.021,1.171.042,1.521.042a.562.562,0,0,0,.1-.255.431.431,0,0,0-.08-.255,4.656,4.656,0,0,1-1.7-.392,1.5,1.5,0,0,1-.51-1.245l-.154-2.93a1.144,1.144,0,0,1,.077-.468,3.122,3.122,0,0,1,.213-.545l3.007-5.955a4.038,4.038,0,0,1,1.248-1.3,5.365,5.365,0,0,1,1.269-.392.676.676,0,0,0,.077-.255m-15.766,4.021V31.9c0-.294-.119-.371-.413-.371-.584,0-3.28.077-6.4.077-2.42,0-4.039-.038-5.133-.038h-1.444c-.252,0-.332.059-.332.332v3.532a.348.348,0,0,0,.234.08.5.5,0,0,0,.234-.038c.762-1.7,1.15-2.6,2.462-3.262.584-.056,2.633-.077,2.944-.077.021.217.042.9.059,1.717.021,1.405.021,2.168.021,5.486,0,2.867-.021,4.353-.059,4.664-.077.545.021.955-2.322,1.052a.628.628,0,0,0-.059.332.875.875,0,0,0,.021.234h.759c.724,0,1.678-.077,2.381-.077.566,0,1.64.059,2.832.059h.545a.524.524,0,0,0,.059-.294.434.434,0,0,0-.08-.273,4.057,4.057,0,0,1-2.01-.371,6.016,6.016,0,0,1-.175-1.465c-.018-2.108-.038-3.1-.038-4.507,0-1.815.021-3.2.021-6.577.273,0,1.717-.021,2.3,0a3.508,3.508,0,0,1,2.2,1.482,6.211,6.211,0,0,1,.878,2.126.774.774,0,0,0,.294.038.376.376,0,0,0,.217-.077m-16.22,9.64a.638.638,0,0,0-.059-.273,13.7,13.7,0,0,1-1.444-.175,3.084,3.084,0,0,1-.664-1.5c-.017-.937-.038-3.063-.038-4.878V33.539a1.564,1.564,0,0,1,.35-1.052,3.335,3.335,0,0,1,1.738-.511.6.6,0,0,0,.06-.252.327.327,0,0,0-.1-.234h-.563c-.822,0-1.993.1-2.657.1-.409,0-1.58-.059-2.44-.077h-.43a.285.285,0,0,0-.094.252,1.261,1.261,0,0,0,.038.255,4.113,4.113,0,0,1,1.521.273,2.155,2.155,0,0,1,.647,1.661c.018.367.035,1.364.056,3.161.021.976.038,2.3.038,3.434,0,.566-.038,2.028-.059,2.713a3.339,3.339,0,0,1-.269,1.171c-.238.2-.472.545-1.895.643a.8.8,0,0,0-.059.294c0,.157.038.157.038.252h.332c.783,0,1.993-.094,3.007-.094.294,0,1.58.056,2.227.056h.64a.47.47,0,0,0,.081-.255m-9.643-3.591a3.621,3.621,0,0,0-2.206-3.434,10.651,10.651,0,0,0-2.164-.78,14.392,14.392,0,0,1-2.832-1.074,2.348,2.348,0,0,1-1.15-2.129,2.584,2.584,0,0,1,2.752-2.283,3.278,3.278,0,0,1,2.675,1.367,9.913,9.913,0,0,1,1.21,2.224.541.541,0,0,0,.626-.154,15.288,15.288,0,0,1-.157-1.759,10.123,10.123,0,0,1,.178-1.521.6.6,0,0,0-.587-.273,4.215,4.215,0,0,0-.762.7,4.887,4.887,0,0,0-3.318-1.213,3.819,3.819,0,0,0-4.116,3.731,3.932,3.932,0,0,0,.72,2.147,4.234,4.234,0,0,0,1.9,1.423c.563.234,3.1,1,3.451,1.133,1.563.6,2.15,1.133,2.15,2.518a3.052,3.052,0,0,1-.86,1.972,2.729,2.729,0,0,1-2.168.916,4.372,4.372,0,0,1-3.28-1.444,9.248,9.248,0,0,1-1.325-2.636.731.731,0,0,0-.273-.035.66.66,0,0,0-.371.115c0,.255.077,1.542.077,1.93a8.2,8.2,0,0,1-.213,1.741.744.744,0,0,0,.626.388,2.735,2.735,0,0,1,.975-.626.92.92,0,0,1,.465.178,5.661,5.661,0,0,0,3.262.975c2.752,0,4.72-1.388,4.72-4.1M135.1,35a3.155,3.155,0,0,1-2.143,2.909,10.881,10.881,0,0,1-2.031.154c-.234,0-.9,0-1.192-.038l-.018-1.717V32.623c0-.255.059-.392.136-.451a6.59,6.59,0,0,1,1.364-.115c1.836,0,2.675.175,3.339,1.129A3.076,3.076,0,0,1,135.1,35m4.1,10.343a.516.516,0,0,0-.095-.294,3.041,3.041,0,0,1-1.29-.252,4.792,4.792,0,0,1-.332-.49,24.478,24.478,0,0,0-.818-2.437,7.344,7.344,0,0,0-1.444-2.325,5.473,5.473,0,0,0-1.406-.643c-.311-.119-.566-.213-.8-.311a7.589,7.589,0,0,1,.8-.119,3.583,3.583,0,0,0,2.07-.72,3.11,3.11,0,0,0,1.287-2.517,3.727,3.727,0,0,0-2.44-3.535,9.585,9.585,0,0,0-2.343-.213c-1.462,0-2.556.136-3.532.136-.29,0-1.248-.038-1.93-.038-.294,0-1.035-.038-1.154-.038-.056.136-.1.175-.1.252a1.2,1.2,0,0,0,.042.273c.329.042.934.119,1.248.178a2.258,2.258,0,0,1,.818,1.052c.1.626.119,2.381.119,5.133,0,1.989.018,4.489-.08,5.231a1.481,1.481,0,0,1-.8,1.308,10.971,10.971,0,0,1-1.112.136.52.52,0,0,0-.1.273.711.711,0,0,0,.081.234c.273,0,2.517-.059,3.14-.059,1.252,0,1.563.059,2.675.059a.487.487,0,0,0,.08-.213.588.588,0,0,0-.08-.294c-.388-.038-.878-.157-1.094-.192a1.473,1.473,0,0,1-.836-1.388l-.021-4.878c.157-.021.72-.021.878-.021a3.6,3.6,0,0,1,1.559.273,4.392,4.392,0,0,1,1.916,1.58,12.311,12.311,0,0,1,1.231,4.255c.056.409.213.762.584.8a7.561,7.561,0,0,0,1.133.059h2.028a.334.334,0,0,0,.115-.255m-16.374-2.965a5.122,5.122,0,0,0-.018-.566.435.435,0,0,0-.294-.059.6.6,0,0,0-.255.038,5.15,5.15,0,0,1-2.011,2.986,3.649,3.649,0,0,1-1.657.217H116.4a9.206,9.206,0,0,1-1.29-.1c-.29-.059-.6-.528-.738-.839a2.54,2.54,0,0,1-.217-1.346V38.263h.626a3.858,3.858,0,0,1,1.657.273,2.335,2.335,0,0,1,1.052.839,6.55,6.55,0,0,1,.276,1.619.478.478,0,0,0,.311.08.466.466,0,0,0,.311-.1c0-.528-.115-1.951-.115-2.734,0-.975.136-2.164.192-2.867a.5.5,0,0,0-.311-.077.584.584,0,0,0-.311.056c-.059.273-.217,1.094-.252,1.154a2.841,2.841,0,0,1-1.5,1.035,6.408,6.408,0,0,1-1.6.154h-.311V35.784c0-1.874.038-2.633.056-2.986.021-.234.059-.486.08-.664.175-.018.741-.038,1.64-.038,1.129,0,1.969.021,2.147.021a2.2,2.2,0,0,1,1.248.388,4.973,4.973,0,0,1,1.738,2.423.578.578,0,0,0,.234.035c.115,0,.136-.035.29-.115,0-1.189-.077-2.535-.115-3.024-.021-.2-.059-.255-.451-.255-.154,0-.9-.038-1.675-.038-1.115,0-1.563.021-3.262.021-.916,0-2.535.018-3.336.018-1.171,0-1.427-.038-1.934-.038h-.664a.4.4,0,0,0-.1.234.456.456,0,0,0,.1.273,9.873,9.873,0,0,1,1.427.217c.273.234.525.294.7,1.227.038.413.059,1.738.059,2.636v4.021c0,.818-.021,2.168-.042,2.654a5.8,5.8,0,0,1-.43,1.892,5.1,5.1,0,0,1-1.755.294.647.647,0,0,0-.1.315.445.445,0,0,0,.1.269h.643c.626,0,2.189-.056,2.713-.056.49,0,1.15.038,2.283.038.626,0,2.458.119,6.4.119a1.668,1.668,0,0,0,.528-.042.568.568,0,0,0,.077-.311c.038-.388.038-1.346.038-2.927M108.381,31.725c0-.077-.021-.2-.1-.213h-.664c-.468,0-1.21.038-1.542.038-1.581,0-2.147-.1-2.381-.1h-.35c-.042.1-.1.154-.1.252,0,.077.042.136.042.217a7.007,7.007,0,0,1,1.346.29,1.842,1.842,0,0,1,.49,1.231,7.358,7.358,0,0,1-.472,1.776l-3.14,7.727-3.86-9.776a1.464,1.464,0,0,1,.64-1.094,8.718,8.718,0,0,1,1.269-.154.747.747,0,0,0,.077-.273c0-.08-.018-.2-.1-.217h-.489c-.6,0-1.517.08-2.552.08-.448,0-1.325-.042-2.185-.042h-.762a.443.443,0,0,0-.018.472,6.635,6.635,0,0,1,1.64.661,34.521,34.521,0,0,1,1.6,3.552l1.615,3.9c1.346,3.241,2.147,5.409,2.245,5.78.1.059,0,.115.175.115s.157-.038.2-.136l5.035-12.1a3.857,3.857,0,0,1,.7-1.112,3.129,3.129,0,0,1,1.559-.626.882.882,0,0,0,.081-.252m-17.095,13.6a.587.587,0,0,0-.059-.273,13.6,13.6,0,0,1-1.444-.175,3.115,3.115,0,0,1-.664-1.5c-.018-.937-.038-3.063-.038-4.878V33.539a1.526,1.526,0,0,1,.353-1.052,3.321,3.321,0,0,1,1.734-.511.552.552,0,0,0,.059-.252.327.327,0,0,0-.1-.234h-.567c-.818,0-1.989.1-2.654.1-.409,0-1.58-.059-2.437-.077h-.43a.276.276,0,0,0-.1.252,1.248,1.248,0,0,0,.038.255,4.134,4.134,0,0,1,1.521.273,2.155,2.155,0,0,1,.647,1.661c.018.367.038,1.364.056,3.161.021.976.042,2.3.042,3.434,0,.566-.042,2.028-.059,2.713a3.255,3.255,0,0,1-.276,1.171c-.231.2-.465.545-1.892.643a.8.8,0,0,0-.059.294c0,.157.042.157.042.252h.329c.783,0,1.993-.094,3.007-.094.294,0,1.58.056,2.224.056h.647a.462.462,0,0,0,.077-.255m-8.822-13.64a.333.333,0,0,0-.059-.2h-.448c-.975,0-1.406.038-3.161.038-.608,0-1.5-.038-1.717-.038H76.57c-.056.038-.077.175-.077.255a.251.251,0,0,0,.1.213,8.4,8.4,0,0,1,2.01.566,3.834,3.834,0,0,1,.566,1.99c.018.294.038.587.038,1.388V41.7a7.639,7.639,0,0,1-.038.839c-.332-.371-.9-1.091-1.661-1.989L70.053,31.84a1.291,1.291,0,0,0-.294-.252c-.157,0-.35-.021-.507-.021-1.248,0-2.342-.056-2.675-.056a.368.368,0,0,0-.056.192,1.471,1.471,0,0,0,.035.255,3.377,3.377,0,0,1,1.507.545,5.792,5.792,0,0,1,.955,1.154,1.681,1.681,0,0,1,.08.622c0,1.018-.059,2.867-.059,4.238v4.154a8.508,8.508,0,0,1-.119,1.482,4.06,4.06,0,0,1-2.049,1,.577.577,0,0,0-.077.234c0,.059.018.175.056.2h.371c.392,0,1.29-.056,1.878-.056.857,0,1.245.056,2.045.056h1.175c.077-.021.095-.175.095-.255a.363.363,0,0,0-.059-.2,3.742,3.742,0,0,1-2.339-1.206,11.515,11.515,0,0,1-.255-2.462c0-.622-.021-1.64-.021-2.79,0-1.542.021-3.668.042-4.353.115.136.294.353.427.507l9.252,10.836c.1.095.136.115.238.115s.035,0,.115-.038a3,3,0,0,0,.1-.878c0-.566-.021-1.154-.021-1.448V35.12c0-2.437,1.154-3.122,2.5-3.178a.467.467,0,0,0,.077-.255m-18.073.094a.406.406,0,0,0-.1-.252h-.563c-.608,0-1.427.038-2.129.038-.78,0-1.657-.038-2.227-.038h-.7a.476.476,0,0,0-.08.252.671.671,0,0,0,.059.255c.08,0,1.5.021,1.755.371a4.777,4.777,0,0,1,.762,1.444A12.741,12.741,0,0,1,61.329,36c0,1.661,0,2.773-.021,3.357a10.453,10.453,0,0,1-.353,2.6,3.564,3.564,0,0,1-3.822,2.538A5.405,5.405,0,0,1,54.846,44a3.292,3.292,0,0,1-1.892-2.462l-.1-5.853-.017-2.381c0-.448.563-.86.759-1.094a9.3,9.3,0,0,1,1.5-.192.588.588,0,0,0,.1-.273.341.341,0,0,0-.136-.255l-.741.021c-.724.018-1.678.038-2.283.038-.937,0-1.661-.021-2.245-.021h-.818a.335.335,0,0,0-.1.273.31.31,0,0,0,.081.234c.622.08,1.031.136,1.308.2a1.642,1.642,0,0,1,.682.86c.021.252.059.878.059,2.1v4.685a11.96,11.96,0,0,0,.2,2.615,3.857,3.857,0,0,0,1.7,2.4,6.394,6.394,0,0,0,3.573.937,6.752,6.752,0,0,0,3.357-.8,4,4,0,0,0,1.93-2.6,8.863,8.863,0,0,0,.315-2.322V36.368c0-.7.038-1.58.038-1.93a3.924,3.924,0,0,1,.587-2.147,7.816,7.816,0,0,1,1.619-.273.478.478,0,0,0,.077-.238" transform="translate(0)"/><path class="a" d="M16.65,12.117a.307.307,0,0,0-.273.178L15.8,13.573a.113.113,0,0,1-.045.019c-.018,0-.038-.019-.052-.059s-.084-.224-.234-.572l-.185-.418c-.066-.154-.119-.255-.136-.287a.28.28,0,0,0-.241-.14.056.056,0,0,1-.011-.038.076.076,0,0,1,.007-.037H15c.108,0,.2.005.28.005s.252-.009.357-.009H15.7c.01,0,.014.025.014.033a.1.1,0,0,1-.007.042c-.07.007-.227,0-.227.1a.265.265,0,0,0,.014.086l.378.9.315-.743a.462.462,0,0,0,.042-.2c0-.084-.059-.121-.217-.14a.134.134,0,0,1-.01-.035.149.149,0,0,1,.01-.044h.045c.07,0,.14.009.3.009.028,0,.136-.005.189-.005h.108a.069.069,0,0,1,.014.033A.091.091,0,0,1,16.65,12.117Z" transform="translate(0)"/><path class="a" d="M18.248,13.549c-.458,0-.706-.012-.769-.012l-.217,0c-.063,0-.21.01-.371.01l-.091,0a.058.058,0,0,1-.007-.033.188.188,0,0,1,0-.044.542.542,0,0,0,.231-.049.435.435,0,0,0,.049-.231c0-.07,0-.147,0-.225,0-.115,0-.255,0-.425V12.3c0-.166-.084-.166-.255-.185a.224.224,0,0,1-.007-.04c0-.009,0-.033.014-.038h.084c.056,0,.206,0,.493,0,.262,0,.518.005.573.005l.157,0c.035,0,.049,0,.049.035l.021.343c-.021.01-.025.014-.042.014a.105.105,0,0,1-.035,0,.7.7,0,0,0-.227-.262.258.258,0,0,0-.133-.038c-.021,0-.073,0-.2,0-.1,0-.157,0-.171.005s-.014,0-.021.058c0,.037-.007.1-.007.3v.2h.052a.744.744,0,0,0,.171-.017.281.281,0,0,0,.154-.108.624.624,0,0,0,.035-.126.093.093,0,0,1,.049-.01.059.059,0,0,1,.038.012c0,.061-.014.177-.014.323,0,.073.007.234.007.3a.055.055,0,0,1-.042.012.169.169,0,0,1-.042-.005c-.014-.129-.035-.217-.143-.262a.408.408,0,0,0-.168-.032.963.963,0,0,0-.1.007v.4a.491.491,0,0,0,.021.178c.011.026.045.079.091.084a.759.759,0,0,0,.14.01h.217A.431.431,0,0,0,18,13.428a.838.838,0,0,0,.241-.323.1.1,0,0,1,.045-.009.12.12,0,0,1,.045.011v.4C18.329,13.544,18.3,13.549,18.248,13.549Z" transform="translate(0)"/><path class="a" d="M20.067,12.514c-.01,0-.024,0-.042-.005a.975.975,0,0,0-.112-.224.362.362,0,0,0-.28-.147c-.035,0-.119,0-.147,0l0,.666c0,.1,0,.229,0,.458,0,.177.08.177.262.2a.088.088,0,0,1,.014.044.074.074,0,0,1-.01.037h-.067c-.1,0-.315-.007-.381-.007-.045,0-.276.01-.385.01a.05.05,0,0,1-.014-.04.1.1,0,0,1,.011-.04c.241-.018.266-.063.273-.14.007-.049.007-.248.007-.451V12.32a.916.916,0,0,0-.014-.183,1.156,1.156,0,0,0-.234.016.605.605,0,0,0-.3.332.1.1,0,0,1-.038.005.042.042,0,0,1-.035-.016v-.388c0-.035,0-.044.045-.044l.164,0c.052,0,.273,0,.549,0,.364,0,.633-.009.7-.009.035,0,.059,0,.073.012a.283.283,0,0,1,0,.056v.388A.042.042,0,0,1,20.067,12.514Z" transform="translate(0)"/><path class="a" d="M16.577,14.881c-.014,0-.025,0-.045-.005a.75.75,0,0,0-.112-.224.356.356,0,0,0-.28-.147c-.035,0-.119,0-.147,0l0,.666c0,.1,0,.229,0,.458,0,.177.084.177.266.2a.079.079,0,0,1,.01.044.069.069,0,0,1-.007.037H16.2c-.108,0-.318-.007-.381-.007-.045,0-.276.011-.388.011a.065.065,0,0,1-.01-.04.187.187,0,0,1,.007-.04c.241-.018.266-.063.276-.14,0-.049,0-.248,0-.451v-.552a.963.963,0,0,0-.01-.184,1.189,1.189,0,0,0-.238.016.6.6,0,0,0-.3.332.126.126,0,0,1-.042.005.046.046,0,0,1-.035-.016v-.388c0-.035.007-.044.045-.044l.164,0c.056,0,.276,0,.552,0,.36,0,.633-.009.7-.009.038,0,.063,0,.074.012s0,.035,0,.056v.388A.046.046,0,0,1,16.577,14.881Z" transform="translate(0)"/><path class="a" d="M18.3,15.916c-.455,0-.706-.012-.766-.012l-.22,0c-.059,0-.21.011-.367.011l-.091,0a.061.061,0,0,1-.01-.033.1.1,0,0,1,.007-.044.5.5,0,0,0,.227-.049c.028-.03.042-.094.049-.231,0-.07.007-.147.007-.226,0-.115,0-.255,0-.425,0-.117,0-.187,0-.236,0-.166-.081-.166-.252-.185a.105.105,0,0,1-.01-.04c0-.009.007-.033.017-.038h.081c.059,0,.206,0,.493,0,.266,0,.517.005.577.005l.154,0c.038,0,.052,0,.052.035l.017.343a.066.066,0,0,1-.042.014.134.134,0,0,1-.035,0,.64.64,0,0,0-.227-.262.241.241,0,0,0-.129-.038c-.021,0-.073,0-.206,0-.1,0-.157,0-.168.005s-.018,0-.025.058c0,.037,0,.1,0,.3v.2h.049a.692.692,0,0,0,.171-.018.29.29,0,0,0,.157-.108.634.634,0,0,0,.031-.126.113.113,0,0,1,.049-.011.063.063,0,0,1,.042.012c0,.061-.017.177-.017.323,0,.073.01.234.01.3a.059.059,0,0,1-.042.012.2.2,0,0,1-.045-.005c-.014-.129-.032-.217-.143-.262a.4.4,0,0,0-.164-.032,1.014,1.014,0,0,0-.1.007v.4a.63.63,0,0,0,.017.178c.014.026.049.079.091.084a.77.77,0,0,0,.14.011h.22a.408.408,0,0,0,.161-.025.8.8,0,0,0,.245-.323.09.09,0,0,1,.045-.009.105.105,0,0,1,.042.01v.4C18.385,15.911,18.36,15.916,18.3,15.916Z" transform="translate(0)"/><path class="a" d="M19.367,15.949a.858.858,0,0,1-.35-.091.161.161,0,0,0-.056-.012.3.3,0,0,0-.112.058.1.1,0,0,1-.088-.045c0-.032.028-.126.028-.185,0-.035-.01-.2-.014-.245a.081.081,0,0,1,.066-.031.108.108,0,0,1,.025,0c.032.061.095.226.14.292a.465.465,0,0,0,.336.159.334.334,0,0,0,.245-.073.216.216,0,0,0,.084-.184.2.2,0,0,0-.042-.136.363.363,0,0,0-.157-.112c-.066-.032-.3-.089-.385-.135a.59.59,0,0,1-.21-.149.46.46,0,0,1-.088-.275.43.43,0,0,1,.465-.423.557.557,0,0,1,.36.1,1.02,1.02,0,0,1,.087-.086.084.084,0,0,1,.08.04,1.8,1.8,0,0,0-.024.206c0,.04.024.2.024.224a.149.149,0,0,1-.059.021.113.113,0,0,1-.028-.007c-.042-.073-.08-.2-.126-.262a.341.341,0,0,0-.3-.129A.248.248,0,0,0,19,14.7a.256.256,0,0,0,.185.224c.063.025.14.054.227.081a1.99,1.99,0,0,1,.241.093.411.411,0,0,1,.248.4A.489.489,0,0,1,19.367,15.949Z" transform="translate(0)"/><path class="a" d="M17.186,18.287c-.458,0-.706-.012-.769-.012l-.217,0c-.063,0-.21.011-.371.011l-.091,0a.057.057,0,0,1-.007-.033.2.2,0,0,1,0-.044.541.541,0,0,0,.231-.049.432.432,0,0,0,.049-.231c0-.07,0-.147,0-.226,0-.115,0-.255,0-.425v-.236c0-.166-.084-.166-.255-.185a.209.209,0,0,1-.007-.04c0-.009,0-.033.014-.038h.084c.056,0,.206,0,.493,0,.262,0,.517.005.573.005l.157,0c.035,0,.049,0,.049.035l.021.343c-.021.011-.024.014-.042.014a.1.1,0,0,1-.035,0,.7.7,0,0,0-.227-.262.257.257,0,0,0-.133-.038c-.021,0-.073,0-.2,0-.1,0-.157,0-.171.005s-.014,0-.021.058c0,.037-.007.1-.007.3v.2h.052a.744.744,0,0,0,.171-.017.281.281,0,0,0,.154-.108.624.624,0,0,0,.035-.126.093.093,0,0,1,.049-.011.06.06,0,0,1,.038.012c0,.061-.014.177-.014.323,0,.074.007.234.007.3a.055.055,0,0,1-.042.012.169.169,0,0,1-.042-.005c-.014-.129-.035-.217-.143-.262a.41.41,0,0,0-.168-.031.967.967,0,0,0-.1.007v.4a.491.491,0,0,0,.021.178c.011.026.045.079.091.084a.759.759,0,0,0,.14.01h.217a.427.427,0,0,0,.164-.025.834.834,0,0,0,.241-.323.1.1,0,0,1,.045-.009.118.118,0,0,1,.045.011v.4C17.266,18.281,17.241,18.287,17.186,18.287Z" transform="translate(0)"/><path class="a" d="M19.388,16.85c-.154.005-.287.089-.287.334l0,.778c0,.03.014.25.014.334a.137.137,0,0,1-.063.025.085.085,0,0,1-.038-.025l-1.066-1.147.011.234,0,.423c0,.033.007.112.014.171a.191.191,0,0,0,.077.161.388.388,0,0,0,.2.066.073.073,0,0,1,.01.035.078.078,0,0,1-.014.038h-.115c-.1,0-.175,0-.276,0-.066,0-.161.007-.227.007h-.049a.128.128,0,0,1,0-.035.1.1,0,0,1,.007-.038.374.374,0,0,0,.241-.1.5.5,0,0,0,.025-.182v-.542c0-.087,0-.131-.007-.217A.264.264,0,0,0,17.79,17a.563.563,0,0,0-.074-.079.774.774,0,0,0-.171-.075.114.114,0,0,1-.01-.035.085.085,0,0,1,.01-.038h.038c.032,0,.2.009.322.009h.073a.148.148,0,0,1,.045.03l.79.864c.059.066.136.154.178.21V17.26a1.642,1.642,0,0,0-.007-.173.424.424,0,0,0-.045-.163c-.024-.038-.171-.059-.248-.075a.112.112,0,0,1-.007-.045.13.13,0,0,1,0-.033h.045c.073,0,.192.011.266.011.182,0,.238-.005.329-.005h.059a.075.075,0,0,1,.007.037A.079.079,0,0,1,19.388,16.85Z" transform="translate(0)"/><path class="a" d="M24.371,12.112c-.15.005-.287.089-.287.334v.778c0,.03.01.25.01.334a.128.128,0,0,1-.059.025c-.01,0-.021-.009-.042-.025l-1.066-1.147.014.234,0,.423c0,.033.007.112.01.171a.212.212,0,0,0,.077.161.41.41,0,0,0,.2.066.073.073,0,0,1,.01.035.116.116,0,0,1-.01.038h-.119c-.095,0-.171,0-.276,0-.066,0-.157.007-.224.007h-.049a.158.158,0,0,1-.007-.035.069.069,0,0,1,.011-.038.372.372,0,0,0,.238-.1.439.439,0,0,0,.025-.182v-.542c0-.087,0-.131,0-.217a.286.286,0,0,0-.052-.164.685.685,0,0,0-.077-.079.707.707,0,0,0-.171-.075.309.309,0,0,1-.007-.035.167.167,0,0,1,.007-.038h.042c.028,0,.192.009.318.009h.073a.243.243,0,0,1,.049.03l.79.864c.059.066.136.154.178.21v-.622a1.38,1.38,0,0,0-.011-.173.369.369,0,0,0-.045-.163c-.024-.038-.171-.059-.245-.075a.12.12,0,0,1-.01-.045.066.066,0,0,1,.007-.033h.045c.073,0,.192.01.266.01.178,0,.238-.005.329-.005h.056a.084.084,0,0,1,.011.037A.092.092,0,0,1,24.371,12.112Z" transform="translate(0)"/><path class="a" d="M25.941,13.358a.752.752,0,0,1-1.066.011.771.771,0,0,1-.227-.575.779.779,0,0,1,.227-.572A.757.757,0,0,1,25.406,12a.794.794,0,0,1,.4.112.786.786,0,0,1,.371.67A.838.838,0,0,1,25.941,13.358Zm-.245-1.1a.35.35,0,0,0-.3-.159.32.32,0,0,0-.28.159.867.867,0,0,0-.14.533.92.92,0,0,0,.133.53.336.336,0,0,0,.3.166.348.348,0,0,0,.329-.206.978.978,0,0,0,.1-.484A.874.874,0,0,0,25.7,12.255Z" transform="translate(0)"/><path class="a" d="M28.088,12.117a.307.307,0,0,0-.269.178l-.573,1.278a.113.113,0,0,1-.045.019c-.018,0-.042-.019-.052-.059s-.084-.224-.238-.572l-.182-.418c-.066-.154-.119-.255-.136-.287a.285.285,0,0,0-.241-.14.046.046,0,0,1-.014-.038.054.054,0,0,1,.011-.037h.094c.1,0,.2.005.276.005s.252-.009.36-.009h.059c.014,0,.017.025.017.033a.1.1,0,0,1-.007.042c-.073.007-.227,0-.227.1a.2.2,0,0,0,.014.086l.374.9.318-.743a.506.506,0,0,0,.038-.2c0-.084-.059-.121-.217-.14a.12.12,0,0,1-.007-.035.15.15,0,0,1,.007-.044h.045c.07,0,.14.009.3.009.025,0,.136-.005.189-.005h.108a.064.064,0,0,1,0,.075Z" transform="translate(0)"/><path class="a" d="M23.878,14.881c-.014,0-.024,0-.045-.005a.759.759,0,0,0-.112-.224.357.357,0,0,0-.28-.147c-.035,0-.119,0-.147,0l0,.666c0,.1,0,.229,0,.458,0,.177.084.177.266.2a.078.078,0,0,1,.011.044.069.069,0,0,1-.007.037H23.5c-.108,0-.318-.007-.381-.007-.045,0-.276.011-.388.011a.065.065,0,0,1-.011-.04.2.2,0,0,1,.007-.04c.241-.018.266-.063.276-.14,0-.049,0-.248,0-.451v-.552a.947.947,0,0,0-.011-.184,1.189,1.189,0,0,0-.238.016.6.6,0,0,0-.3.332.126.126,0,0,1-.042.005.046.046,0,0,1-.035-.016v-.388c0-.035.007-.044.045-.044l.164,0c.056,0,.276,0,.552,0,.36,0,.633-.009.7-.009.038,0,.063,0,.073.012s0,.035,0,.056v.388A.046.046,0,0,1,23.878,14.881Z" transform="translate(0)"/><path class="a" d="M25.689,15.914H25.57c-.077,0-.164-.01-.255-.01-.143,0-.325.01-.4.01a.056.056,0,0,1-.011-.038.129.129,0,0,1,.007-.035c.147-.007.206-.032.206-.091a.519.519,0,0,0-.045-.2c-.045-.11-.07-.161-.081-.189-.007-.011-.01-.016-.042-.016h-.475a1.018,1.018,0,0,0-.112.288.328.328,0,0,0-.011.088c0,.049.045.1.213.108a.074.074,0,0,1,.01.042.129.129,0,0,1,0,.035h-.042c-.112,0-.143-.007-.262-.007-.077,0-.262.007-.325.007a.1.1,0,0,1-.007-.032.09.09,0,0,1,.007-.038.324.324,0,0,0,.217-.11,2.53,2.53,0,0,0,.192-.393c.084-.2.185-.456.231-.563.063-.131.084-.175.1-.22.032-.066.066-.133.08-.157a.082.082,0,0,1,.126,0,.461.461,0,0,1,.035.075c.087.208.157.393.266.652.056.131.084.213.143.35.042.086.066.15.108.229.056.114.147.115.238.138,0,.01.014.021.014.035S25.7,15.9,25.689,15.914Zm-.955-1.2h0c-.032.058-.087.189-.108.243-.081.2-.108.262-.122.29h.451C24.916,15.161,24.8,14.883,24.735,14.717Z" transform="translate(0)"/><path class="a" d="M28.025,15.914l-.612-.007h-.168a.1.1,0,0,1-.011-.038.052.052,0,0,1,.014-.038.77.77,0,0,0,.15-.014c.063-.028.088-.089.088-.18V14.549h0l-.322.7c-.035.077-.077.161-.112.245a3.32,3.32,0,0,0-.133.343.045.045,0,0,1-.049.028c-.021,0-.035-.007-.045-.042-.042-.091-.07-.15-.084-.189l-.5-1.108h-.011v.283l.011.708c0,.215.112.317.283.317a.122.122,0,0,1,.014.037.085.085,0,0,1-.011.037c-.011,0-.045,0-.077,0s-.133-.01-.294-.01c-.045,0-.14,0-.213,0h-.1a.132.132,0,0,1-.007-.037.18.18,0,0,1,.007-.033.784.784,0,0,0,.22-.077c.032-.03.059-.094.059-.243v-.776c0-.124-.017-.171-.077-.213a.679.679,0,0,0-.2-.04.1.1,0,0,1-.01-.042.1.1,0,0,1,.01-.04c.06,0,.164.005.269.005h.367a.09.09,0,0,1,.032.038l.451,1.023.081-.2c.07-.164.171-.411.315-.678l.091-.175.573-.009a.072.072,0,0,1,.014.037.074.074,0,0,1-.011.038c-.063.011-.171.011-.224.1-.018.028-.028.056-.028.18v.729c0,.28.07.308.1.329a.537.537,0,0,0,.154.021.079.079,0,0,1,.01.038C28.035,15.9,28.028,15.9,28.025,15.914Z" transform="translate(0)"/><path class="a" d="M23.843,17.252c-.014,0-.025,0-.045-.005a.757.757,0,0,0-.112-.224.356.356,0,0,0-.28-.147c-.035,0-.119,0-.147,0l0,.666c0,.1,0,.229,0,.458,0,.177.084.177.266.2a.079.079,0,0,1,.01.044.069.069,0,0,1-.007.037h-.066c-.108,0-.318-.007-.381-.007-.045,0-.276.011-.388.011a.065.065,0,0,1-.01-.04.189.189,0,0,1,.007-.04c.241-.018.266-.063.276-.14,0-.049,0-.248,0-.451v-.552a.961.961,0,0,0-.01-.183,1.189,1.189,0,0,0-.238.016.6.6,0,0,0-.3.332.126.126,0,0,1-.042.005.046.046,0,0,1-.035-.016v-.388c0-.035.007-.044.045-.044l.164,0c.056,0,.276,0,.552,0,.36,0,.633-.009.7-.009.038,0,.063,0,.073.012s0,.035,0,.056v.388A.046.046,0,0,1,23.843,17.252Z" transform="translate(0)"/><path class="a" d="M25.72,16.855a.306.306,0,0,0-.269.178l-.574,1.278a.113.113,0,0,1-.045.019c-.017,0-.042-.019-.052-.059s-.084-.224-.238-.572l-.182-.418c-.066-.154-.119-.255-.136-.287a.285.285,0,0,0-.241-.14.046.046,0,0,1-.014-.038.054.054,0,0,1,.011-.037h.094c.1,0,.2.005.276.005s.252-.009.36-.009h.059c.014,0,.018.024.018.033a.1.1,0,0,1-.007.042c-.074.007-.227,0-.227.1a.2.2,0,0,0,.014.086l.374.9.318-.743a.5.5,0,0,0,.038-.2c0-.084-.059-.12-.217-.14a.127.127,0,0,1-.007-.035.156.156,0,0,1,.007-.044h.045c.07,0,.14.009.3.009.025,0,.136-.005.189-.005h.108a.062.062,0,0,1,.011.033A.064.064,0,0,1,25.72,16.855Z" transform="translate(0)"/><path class="a" d="M28.056,18.285l-.608-.007h-.171a.085.085,0,0,1-.007-.038.05.05,0,0,1,.01-.038.821.821,0,0,0,.154-.014c.059-.028.084-.089.084-.18v-.883s0-.159,0-.2h-.007l-.318.7c-.038.077-.077.161-.115.245-.07.164-.112.278-.133.343-.007.028-.032.028-.049.028s-.031-.007-.045-.042c-.038-.091-.067-.15-.081-.189L26.266,16.9h-.01v.283l.01.708c0,.215.112.317.287.317a.1.1,0,0,1,.01.037.075.075,0,0,1-.007.037c-.014,0-.045,0-.08,0s-.129-.01-.29-.01c-.049,0-.143,0-.213,0h-.1a.073.073,0,0,1-.01-.037.086.086,0,0,1,.01-.033.827.827,0,0,0,.22-.077.355.355,0,0,0,.056-.243l0-.357,0-.42c0-.124-.014-.171-.077-.213a.678.678,0,0,0-.2-.04.07.07,0,0,1-.014-.042.073.073,0,0,1,.014-.04c.056,0,.164.005.266.005h.371a.085.085,0,0,1,.028.038l.451,1.023.084-.2a6.945,6.945,0,0,1,.315-.678c.028-.059.07-.135.091-.175l.57-.009c.007.012.018.023.018.037a.079.079,0,0,1-.014.038c-.059.01-.168.01-.22.1-.017.028-.031.056-.031.18v.729c0,.28.07.308.1.329a.5.5,0,0,0,.15.021.058.058,0,0,1,.014.038C28.07,18.269,28.063,18.271,28.056,18.285Z" transform="translate(0)"/><path class="a" d="M42.539,8.818,42.476,8.1l-.685.208a17.6,17.6,0,0,1-5.136.762A17.312,17.312,0,0,1,21.86.827L21.364,0l-.5.827A17.31,17.31,0,0,1,6.07,9.073,17.56,17.56,0,0,1,.944,8.315L.257,8.107l-.063.715a50.482,50.482,0,0,0,.881,14.787,51.231,51.231,0,0,0,5.5,14.606,52.3,52.3,0,0,0,4.594,6.853A53.073,53.073,0,0,0,21,54.634l.348.259.348-.259A53,53,0,0,0,31.551,45.1a51.781,51.781,0,0,0,4.593-6.843,51.227,51.227,0,0,0,5.343-13.938l.143-.706A50.8,50.8,0,0,0,42.539,8.818ZM30.255,12.713h.857v1.675h-.857Zm0,4.385h.857v1.677h-.857Zm-8.671-6.159a1.585,1.585,0,0,1,1.451-.61l1.654.234,2.178.287a4.323,4.323,0,0,0,1.892-.309v9.1a5.217,5.217,0,0,1-1.892.281l-2.1-.28L23.035,19.4a2.165,2.165,0,0,0-1.451.458Zm-7.455-.381a4.067,4.067,0,0,0,1.815.3l2.182-.289,1.65-.236a1.587,1.587,0,0,1,1.451.61v8.925a2.175,2.175,0,0,0-1.465-.462l-1.731.243-2.087.278c-1.528,0-1.846-.369-1.85-.372S14.126,11.168,14.13,10.558Zm-1.245,1.107c.164-.033.65-.136.888-.187v8.18c.087.187.462.622,2.171.622l2.164-.285,1.654-.236a1.619,1.619,0,0,1,1.469.612l.049-.028h.255l.049.026a1.584,1.584,0,0,1,1.451-.61l1.654.234,2.178.287c1.734,0,2.164-.456,2.21-.507l.032-8.337.79.22v9.037a24.427,24.427,0,0,1-3.133.245,40.032,40.032,0,0,1-4.182-.294l-.2-.028v.612a3.059,3.059,0,0,1-1.014.185,2.755,2.755,0,0,1-.972-.183v-.614l-.2.028a39.99,39.99,0,0,1-4.171.294,24.39,24.39,0,0,1-3.14-.245Zm-1.2,1.049h.839v1.675h-.839Zm0,4.385h.839v1.677h-.839Zm9.664,36.3a52.013,52.013,0,0,1-9.269-9.056c-.011-.014-.021-.032-.032-.045l9.3-9.049,9.322,9.066c-.014.014-.025.035-.038.052A52,52,0,0,1,21.353,53.4Zm19-29.34A50.168,50.168,0,0,1,35.2,37.543L21.357,24.224,7.525,37.515A50.215,50.215,0,0,1,2.243,23.49H40.465Z" transform="translate(0)"/></svg>