<?xml version="1.0" encoding="utf-8"?>
<!-- Generator: Adobe Illustrator 15.1.0, SVG Export Plug-In . SVG Version: 6.00 Build 0)  -->
<!DOCTYPE svg PUBLIC "-//W3C//DTD SVG 1.1//EN" "http://www.w3.org/Graphics/SVG/1.1/DTD/svg11.dtd">
<svg version="1.1" id="Layer_1" xmlns="http://www.w3.org/2000/svg" xmlns:xlink="http://www.w3.org/1999/xlink" x="0px" y="0px"
	 width="32px" height="32px" viewBox="0 0 32 32" enable-background="new 0 0 32 32" xml:space="preserve">
<path fill="#FFFFFF" d="M26.667,0H5.333C2.388,0,0,2.388,0,5.334v21.332C0,29.611,2.387,32,5.333,32H16V18h-4v-4h4v-3
	c0-2.76,2.24-5,5-5h5v4h-5c-0.552,0-1,0.448-1,1v3h5.5l-1,4H20v14h6.667C29.611,32,32,29.611,32,26.666V5.334
	C32,2.388,29.613,0,26.667,0z"/>
</svg>
