<svg id="Layer_1" data-name="Layer 1" xmlns="http://www.w3.org/2000/svg" viewBox="0 0 440.06 97" preserveAspectRatio="xMinYMid"><defs><style>.cls-1{fill:none}.cls-2{fill:#ef7622}.cls-3{clip-path:url(#clip-path)}.cls-4{fill:#fff}</style><clipPath id="clip-path"><path class="cls-1" d="M3 .91h90v90H3z"/></clipPath></defs><title>Artboard 1</title><rect class="cls-2" width="96" height="97" rx="12.24" ry="12.24"/><g class="cls-3"><g class="cls-3"><path class="cls-4" d="M10.77 83.5V20.15a20.61 20.61 0 0 0 6.59-3.05v59.8h.41a16.4 16.4 0 0 0 3.53-.38 38 38 0 0 0 7.62-2.49c1.24-.54 2.45-1.13 3.67-1.71a17.37 17.37 0 0 1 5.72-1.71 11.78 11.78 0 0 1 6.16.85A7 7 0 0 1 46.74 73a4.24 4.24 0 0 1 1.11 2c0 .06 0 .11.06.2s.05-.07.05-.09A4.16 4.16 0 0 1 49.12 73a7.6 7.6 0 0 1 3.17-1.9 12 12 0 0 1 4.42-.55 16.49 16.49 0 0 1 6.44 1.73c2 1 4 1.89 6 2.66a33.85 33.85 0 0 0 6.22 1.74 14.33 14.33 0 0 0 2.69.23h.33V17.33a.51.51 0 0 1 0-.07v-.07A21.31 21.31 0 0 0 85 20v63.5z"/><path class="cls-4" d="M24.83 32.7A70.14 70.14 0 0 1 25 17l.41.2a17.26 17.26 0 0 0 4.85 1.69 13.45 13.45 0 0 0 8.91-1.44 19.27 19.27 0 0 0 5-3.93 25.37 25.37 0 0 0 3.55-4.83l.12-.19.21.35a24.49 24.49 0 0 0 5.68 6.73 15.38 15.38 0 0 0 6.35 3.2 13.73 13.73 0 0 0 7.33-.4 19 19 0 0 0 2.91-1.22l.25-.13h.12a70.13 70.13 0 0 1 .16 15.56H24.84M35.7 60.37a50.22 50.22 0 0 1-5.26-8.68l17.42-17.43 17.37 17.4A46.75 46.75 0 0 1 60 60.35l-6.05-6-6.07-6.07L35.7 60.37"/></g></g><path class="cls-4" d="M118.7 28.26h-3V3.93h8.63q4 0 6 2.2a7.41 7.41 0 0 1 1.92 5 7 7 0 0 1-2.09 5.19 7.5 7.5 0 0 1-5.48 2h-5.9zm0-12.4h5.6a4.75 4.75 0 0 0 3.48-1.29 4.56 4.56 0 0 0 1.32-3.41 5 5 0 0 0-1.18-3.24 4.16 4.16 0 0 0-3.4-1.43h-5.82zm21.15 12.4h-2.8v-18h2.46v4.21a9 9 0 0 1 2.61-3.86 4.75 4.75 0 0 1 2.68-.88 11.06 11.06 0 0 1 1.1.07v2.67h-.57a4.93 4.93 0 0 0-3.85 1.73 7 7 0 0 0-1.64 4.54zm13.36-24.33V7h-3V3.93zm-.09 6.33v18h-2.8v-18zm21.01 18h-2.62V16.69a4.67 4.67 0 0 0-1.09-3.51 3.72 3.72 0 0 0-2.64-1 4.53 4.53 0 0 0-3.59 1.71 6.73 6.73 0 0 0-1.45 4.51v9.87h-2.8v-18h2.6v3.32q2.19-3.81 5.69-3.81a5.63 5.63 0 0 1 3.43 1 5.54 5.54 0 0 1 1.94 2.34 14.25 14.25 0 0 1 .53 4.71zm17.47-6.31l2.53.45a8.06 8.06 0 0 1-2.37 4.67A7.16 7.16 0 0 1 181.51 26a11.29 11.29 0 0 1-2-6.71 11 11 0 0 1 2.06-6.82 6.66 6.66 0 0 1 5.61-2.72 6.41 6.41 0 0 1 4.71 1.76 7.86 7.86 0 0 1 2.2 4.54l-2.53.48q-.71-4.46-4.3-4.46a4 4 0 0 0-3.56 2 9.42 9.42 0 0 0-1.25 5.11 9.87 9.87 0 0 0 1.24 5.37 3.91 3.91 0 0 0 3.48 1.92q3.51-.03 4.43-4.52zm19.49.94l2.6.53a7.32 7.32 0 0 1-2.78 3.82 8 8 0 0 1-4.91 1.52 7.57 7.57 0 0 1-6-2.6 9.93 9.93 0 0 1-2.28-6.81 10 10 0 0 1 2.37-6.95 7.65 7.65 0 0 1 6-2.65 7.19 7.19 0 0 1 5.68 2.44q2.15 2.44 2.2 7.31h-13.05q0 4.08 1.71 5.51a5.57 5.57 0 0 0 3.62 1.43q3.44 0 4.84-3.55zm-.16-5.47a7.83 7.83 0 0 0-.5-2.69 4.6 4.6 0 0 0-1.57-2 4.3 4.3 0 0 0-2.66-.83 4.74 4.74 0 0 0-3.54 1.5 6.19 6.19 0 0 0-1.63 4zm16.5 8.93v2.21a19.86 19.86 0 0 1-2.57.2q-5.22 0-5.22-5.46V12.45h-3.19v-2.19h3.19l.13-4.53 2.6-.25v4.78h4v2.19h-4v11.31q0 2.78 2.89 2.78a13.69 13.69 0 0 0 2.17-.19zm10.2 2.41a6.84 6.84 0 0 1-5.78-2.76 11 11 0 0 1-2.08-6.81 9.82 9.82 0 0 1 2.33-6.87 7.53 7.53 0 0 1 5.81-2.57 7.1 7.1 0 0 1 5.87 2.7 10.51 10.51 0 0 1 2.15 6.75 10.11 10.11 0 0 1-2.32 6.88 7.56 7.56 0 0 1-5.98 2.68zm.21-2.32a4.45 4.45 0 0 0 3.58-1.76q1.44-1.77 1.44-5.49t-1.52-5.43a4.63 4.63 0 0 0-3.55-1.68 4.46 4.46 0 0 0-3.53 1.7q-1.44 1.7-1.45 5.39 0 3.9 1.45 5.59a4.51 4.51 0 0 0 3.59 1.68zm27.73 1.82H263V16.69a4.67 4.67 0 0 0-1.09-3.51 3.72 3.72 0 0 0-2.64-1 4.52 4.52 0 0 0-3.59 1.71 6.73 6.73 0 0 0-1.45 4.51v9.87h-2.8v-18H254v3.32q2.19-3.81 5.69-3.81a5.63 5.63 0 0 1 3.43 1 5.54 5.54 0 0 1 1.88 2.37 14.28 14.28 0 0 1 .53 4.71zm31.32-24.33h2.53v15.89q0 4.78-2.34 6.86a8.91 8.91 0 0 1-6.14 2.08q-4.22 0-6.26-2.14t-2-6.8V3.93h3v15.89a8.65 8.65 0 0 0 .66 4 3.93 3.93 0 0 0 2 1.71 7.24 7.24 0 0 0 2.8.55 5.75 5.75 0 0 0 4.28-1.48q1.46-1.48 1.46-4.78zm23.25 24.33h-2.62V16.69a4.67 4.67 0 0 0-1.09-3.51 3.72 3.72 0 0 0-2.64-1 4.52 4.52 0 0 0-3.59 1.71 6.73 6.73 0 0 0-1.45 4.51v9.87H306v-18h2.6v3.32q2.19-3.81 5.69-3.81a5.63 5.63 0 0 1 3.43 1 5.54 5.54 0 0 1 1.94 2.34 14.27 14.27 0 0 1 .53 4.71zm9.73-24.33V7h-3V3.93zm-.09 6.33v18H327v-18zm20.01 0l-6.22 18h-2.88l-6.45-18h3.11l5 14.63 5-14.63zm15.82 12.63l2.6.53a7.32 7.32 0 0 1-2.78 3.82 8 8 0 0 1-4.87 1.51 7.57 7.57 0 0 1-6-2.6 9.93 9.93 0 0 1-2.28-6.81 10 10 0 0 1 2.37-6.95 7.65 7.65 0 0 1 6-2.65 7.19 7.19 0 0 1 5.68 2.44q2.15 2.44 2.2 7.31h-13.1q0 4.08 1.71 5.51a5.57 5.57 0 0 0 3.62 1.43q3.44.01 4.85-3.54zm-.16-5.47a7.81 7.81 0 0 0-.5-2.69 4.61 4.61 0 0 0-1.57-2 4.31 4.31 0 0 0-2.66-.83 4.74 4.74 0 0 0-3.54 1.5 6.19 6.19 0 0 0-1.63 4zm11.31 10.84H374v-18h2.46v4.21a9 9 0 0 1 2.54-3.86 4.75 4.75 0 0 1 2.68-.88c.29 0 .65 0 1.11.07v2.67h-.57a4.93 4.93 0 0 0-3.85 1.73 7 7 0 0 0-1.64 4.54zm8.24-4.67l2.7-.59q.89 3.4 5.63 3.4a5.34 5.34 0 0 0 3-.78 2.49 2.49 0 0 0 1.21-2.21q0-2.12-3.08-2.69l-3.84-.72a6.93 6.93 0 0 1-3.55-1.68 4.33 4.33 0 0 1-1.32-3.3 4.76 4.76 0 0 1 1.8-3.79 7.25 7.25 0 0 1 4.85-1.52q5.86 0 7.23 4.58l-2.57.55q-1.1-2.82-4.54-2.82a5.11 5.11 0 0 0-2.81.7 2.21 2.21 0 0 0-1.1 2q0 2 2.8 2.51l3.51.63q5.51 1 5.51 5.34a4.77 4.77 0 0 1-2 4 8.92 8.92 0 0 1-5.46 1.53q-6.43.03-7.97-5.14zm23.5-19.66V7h-3V3.93zm-.09 6.33v18h-2.8v-18zm14.99 16.09v2.21a19.87 19.87 0 0 1-2.57.2q-5.22 0-5.22-5.46V12.45h-3.19v-2.19h3.19l.13-4.53 2.6-.25v4.78h4v2.19h-4v11.31q0 2.78 2.89 2.78a13.7 13.7 0 0 0 2.17-.19zm16.66-16.09l-7.22 20.11q-1.57 4.35-5 4.35a8.87 8.87 0 0 1-2.41-.37v-2.21a8.57 8.57 0 0 0 1.87.25 3.33 3.33 0 0 0 2.24-.77q.9-.77 1.79-3.74l-6.23-17.62h2.84l4.83 13.53 4.92-13.53zM116 43.11h7.42V84.2h22v6.51H116zm45.61 0H169v47.6h-7.35zm26.25 0h17.29c8.89 0 13.44 5.39 13.44 12a9 9 0 0 1-6.44 9.17c6.37 1.47 9.73 6 9.73 12.11 0 8.19-5.46 14.35-15.47 14.35h-18.55zm16.94 18.55c4.41 0 6.51-2.45 6.51-6s-2-6-6.65-6h-9.38v12zM206 84.2c5.74 0 8.47-3.36 8.47-8.12S211.53 68 205.65 68h-10.37v16.2zm64.68 6.51h-8.54l-8.54-12.53a38.3 38.3 0 0 1-4 .28h-4.48v12.25h-7.42v-47.6h11.9c13.16 0 20.51 6.86 20.51 17.78 0 7.35-3.29 12.39-9.52 15.12zm-21.36-18.62c9.45 0 13.23-4.13 13.23-11.2s-3.92-11.27-13.23-11.27h-4.2v22.47zm54.25-29.47h.84l20.86 48.09h-7.7L314.85 84h-21.78l-2.73 6.72h-7.14zm8.61 35.14l-6-14.84a71.79 71.79 0 0 1-2.38-7.07 64.14 64.14 0 0 1-2.31 7.07l-6 14.84zm61.04 12.95h-8.54l-8.54-12.53a38.3 38.3 0 0 1-4 .28h-4.48v12.25h-7.42v-47.6h11.9c13.16 0 20.51 6.86 20.51 17.78 0 7.35-3.29 12.39-9.52 15.12zm-21.35-18.62c9.45 0 13.23-4.13 13.23-11.2s-3.92-11.27-13.23-11.27h-4.2v22.47zm50.54 3.57l-18.06-32.55h8.19l10.78 19.6a50.68 50.68 0 0 1 2.87 6.86 63.32 63.32 0 0 1 2.87-6.86l10.43-19.6h7.63l-17.29 32.13v15.47h-7.42z"/></svg>