<?xml version="1.0" encoding="utf-8"?>
<!-- Generated by IcoMoon.io -->
<!DOCTYPE svg PUBLIC "-//W3C//DTD SVG 1.1//EN" "http://www.w3.org/Graphics/SVG/1.1/DTD/svg11.dtd">
<svg version="1.1" xmlns="http://www.w3.org/2000/svg" xmlns:xlink="http://www.w3.org/1999/xlink" width="18" height="18" viewBox="0 0 18 18">
<path fill="#444444" d="M15.375 7.5c-0.207 0-0.375 0.168-0.375 0.375v1.125h-0.75v-4.125c0-2.102-1.339-3.891-3.206-4.575-0.019-0.010-0.040-0.016-0.062-0.022-0.504-0.176-1.043-0.278-1.606-0.278s-1.103 0.101-1.608 0.278c-0.020 0.006-0.040 0.012-0.059 0.021-1.867 0.684-3.208 2.474-3.208 4.576v4.125h-0.75v-1.125c0-0.207-0.168-0.375-0.375-0.375s-0.375 0.168-0.375 0.375v1.5c0 3.448 2.608 6.168 6 6.357v1.893c0 0.207 0.168 0.375 0.375 0.375s0.375-0.168 0.375-0.375v-1.893c3.392-0.189 6-2.908 6-6.357v-1.5c0-0.207-0.168-0.375-0.375-0.375zM5.25 8.25h2.625c0.207 0 0.375-0.168 0.375-0.375s-0.168-0.375-0.375-0.375h-2.625v-0.75h2.625c0.207 0 0.375-0.168 0.375-0.375s-0.168-0.375-0.375-0.375h-2.625v-0.75h2.625c0.207 0 0.375-0.168 0.375-0.375s-0.168-0.375-0.375-0.375h-2.606c0.13-1.439 1.003-2.665 2.231-3.295v1.42c0 0.207 0.168 0.375 0.375 0.375s0.375-0.168 0.375-0.375v-1.714c0.242-0.070 0.492-0.118 0.75-0.141v1.855c0 0.207 0.168 0.375 0.375 0.375s0.375-0.168 0.375-0.375v-1.856c0.258 0.023 0.508 0.072 0.751 0.141l-0.001 1.715c0 0.207 0.168 0.375 0.375 0.375s0.375-0.168 0.375-0.375l0.001-1.42c1.228 0.631 2.1 1.856 2.231 3.295h-2.606c-0.207 0-0.375 0.168-0.375 0.375s0.168 0.375 0.375 0.375h2.625v0.75h-2.625c-0.207 0-0.375 0.168-0.375 0.375s0.168 0.375 0.375 0.375h2.625v0.75h-2.625c-0.207 0-0.375 0.168-0.375 0.375s0.168 0.375 0.375 0.375h2.625v0.75h-8.25v-0.75zM13.481 9.75c-0.19 2.099-1.958 3.75-4.106 3.75s-3.916-1.651-4.106-3.75h8.213zM9.375 15c-3.028 0-5.419-2.278-5.607-5.25h0.751c0.193 2.513 2.295 4.5 4.856 4.5s4.663-1.987 4.856-4.5h0.751c-0.188 2.972-2.579 5.25-5.607 5.25z"></path>
</svg>
