<?xml version="1.0" encoding="utf-8"?>
<!-- Generated by IcoMoon.io -->
<!DOCTYPE svg PUBLIC "-//W3C//DTD SVG 1.1//EN" "http://www.w3.org/Graphics/SVG/1.1/DTD/svg11.dtd">
<svg version="1.1" xmlns="http://www.w3.org/2000/svg" xmlns:xlink="http://www.w3.org/1999/xlink" width="18" height="18" viewBox="0 0 18 18">
<path fill="#444444" d="M15.375 3h-0.375v-2.625c0-0.207-0.168-0.375-0.375-0.375h-10.5c-1.034 0-1.875 0.841-1.875 1.875v14.25c0 1.034 0.841 1.875 1.875 1.875h11.25c0.207 0 0.375-0.168 0.375-0.375v-14.25c0-0.207-0.168-0.375-0.375-0.375zM4.125 0.75h10.125v2.25h-0.75v-1.125c0-0.207-0.168-0.375-0.375-0.375h-9c-0.207 0-0.375 0.168-0.375 0.375s0.168 0.375 0.375 0.375h8.625v0.75h-8.625c-0.62 0-1.125-0.505-1.125-1.125s0.505-1.125 1.125-1.125zM15 17.25h-10.875c-0.62 0-1.125-0.505-1.125-1.125v-12.751c0.314 0.235 0.703 0.376 1.125 0.376h10.875v13.5z"></path>
</svg>
