<?xml version="1.0" encoding="utf-8"?>
<!-- Generated by IcoMoon.io -->
<!DOCTYPE svg PUBLIC "-//W3C//DTD SVG 1.1//EN" "http://www.w3.org/Graphics/SVG/1.1/DTD/svg11.dtd">
<svg version="1.1" xmlns="http://www.w3.org/2000/svg" xmlns:xlink="http://www.w3.org/1999/xlink" width="18" height="18" viewBox="0 0 18 18">
<path fill="#444444" d="M15.721 4.731c-0.019-0.046-0.046-0.087-0.081-0.121l-4.499-4.499c-0.035-0.034-0.076-0.062-0.121-0.080-0.045-0.019-0.094-0.030-0.144-0.030h-8.25c-0.207 0-0.375 0.168-0.375 0.375v17.25c0 0.207 0.168 0.375 0.375 0.375h12.75c0.207 0 0.375-0.168 0.375-0.375v-12.75c0-0.050-0.010-0.099-0.029-0.144zM11.25 1.28l3.22 3.22h-3.22v-3.22zM3 17.25v-16.5h7.5v4.125c0 0.207 0.168 0.375 0.375 0.375h4.125v12h-12z"></path>
</svg>
