<?xml version="1.0" encoding="utf-8"?>
<!-- Generated by IcoMoon.io -->
<!DOCTYPE svg PUBLIC "-//W3C//DTD SVG 1.1//EN" "http://www.w3.org/Graphics/SVG/1.1/DTD/svg11.dtd">
<svg version="1.1" xmlns="http://www.w3.org/2000/svg" xmlns:xlink="http://www.w3.org/1999/xlink" width="18" height="18" viewBox="0 0 18 18">
<path fill="#444444" d="M17.625 0.75c-3.624 0-7.438 0.725-8.625 2.088-1.187-1.363-5.001-2.088-8.625-2.088-0.207 0-0.375 0.168-0.375 0.375v12.375c0 0.207 0.168 0.375 0.375 0.375 5.111 0 8.25 1.311 8.25 2.25 0 0.207 0.168 0.375 0.375 0.375s0.375-0.168 0.375-0.375c0-0.939 3.139-2.25 8.25-2.25 0.207 0 0.375-0.168 0.375-0.375v-12.375c0-0.207-0.168-0.375-0.375-0.375zM0.75 13.127v-11.625c4.889 0.062 7.875 1.331 7.875 2.248v11.123c-1.426-1.099-4.683-1.702-7.875-1.746zM17.25 13.127c-3.192 0.044-6.449 0.647-7.875 1.745v-11.123c0-0.917 2.986-2.186 7.875-2.248v11.625z"></path>
<path fill="#444444" d="M7.259 5.080c-1.262-0.484-3.032-0.823-4.984-0.955-0.197-0.004-0.386 0.142-0.4 0.349s0.142 0.386 0.349 0.4c1.88 0.127 3.573 0.449 4.766 0.906 0.044 0.017 0.089 0.025 0.134 0.025 0.151 0 0.293-0.091 0.35-0.241 0.073-0.194-0.022-0.41-0.216-0.484z"></path>
<path fill="#444444" d="M7.259 7.33c-1.262-0.484-3.032-0.823-4.984-0.955-0.197-0.006-0.386 0.142-0.4 0.349s0.142 0.386 0.349 0.4c1.88 0.127 3.573 0.449 4.766 0.906 0.044 0.017 0.089 0.025 0.134 0.025 0.151 0 0.293-0.091 0.35-0.241 0.073-0.194-0.022-0.41-0.216-0.484z"></path>
<path fill="#444444" d="M7.259 9.581c-1.262-0.484-3.032-0.823-4.984-0.955-0.197-0.008-0.386 0.142-0.4 0.349s0.142 0.386 0.349 0.399c1.88 0.127 3.573 0.449 4.766 0.906 0.044 0.017 0.089 0.026 0.134 0.026 0.151 0 0.293-0.091 0.35-0.241 0.073-0.194-0.022-0.41-0.216-0.484z"></path>
<path fill="#444444" d="M7.259 11.831c-1.262-0.484-3.032-0.823-4.984-0.955-0.197-0.010-0.386 0.142-0.4 0.349s0.142 0.386 0.349 0.399c1.88 0.127 3.573 0.449 4.766 0.906 0.044 0.017 0.089 0.026 0.134 0.026 0.151 0 0.293-0.091 0.35-0.241 0.073-0.194-0.022-0.41-0.216-0.484z"></path>
<path fill="#444444" d="M10.875 5.805c0.045 0 0.090-0.008 0.134-0.026 1.196-0.457 2.888-0.778 4.766-0.906 0.206-0.013 0.362-0.193 0.349-0.399s-0.199-0.352-0.4-0.349c-1.951 0.132-3.721 0.471-4.984 0.955-0.194 0.073-0.29 0.29-0.216 0.484 0.057 0.15 0.199 0.241 0.35 0.241z"></path>
<path fill="#444444" d="M10.875 8.055c0.045 0 0.090-0.008 0.134-0.026 1.196-0.457 2.888-0.778 4.766-0.906 0.206-0.013 0.362-0.193 0.349-0.399s-0.199-0.355-0.4-0.349c-1.951 0.132-3.721 0.471-4.984 0.955-0.194 0.073-0.29 0.29-0.216 0.484 0.057 0.15 0.199 0.241 0.35 0.241z"></path>
<path fill="#444444" d="M10.875 10.305c0.045 0 0.090-0.008 0.134-0.026 1.196-0.457 2.888-0.778 4.766-0.906 0.206-0.014 0.362-0.193 0.349-0.399s-0.199-0.357-0.4-0.349c-1.951 0.132-3.721 0.471-4.984 0.955-0.194 0.073-0.29 0.29-0.216 0.484 0.057 0.15 0.199 0.241 0.35 0.241z"></path>
<path fill="#444444" d="M10.875 12.555c0.045 0 0.090-0.008 0.134-0.026 1.196-0.457 2.888-0.778 4.766-0.906 0.206-0.014 0.362-0.193 0.349-0.399s-0.199-0.359-0.4-0.349c-1.951 0.132-3.721 0.471-4.984 0.955-0.194 0.073-0.29 0.29-0.216 0.484 0.057 0.15 0.199 0.241 0.35 0.241z"></path>
</svg>
