<?xml version="1.0" encoding="utf-8"?>
<!-- Generated by IcoMoon.io -->
<!DOCTYPE svg PUBLIC "-//W3C//DTD SVG 1.1//EN" "http://www.w3.org/Graphics/SVG/1.1/DTD/svg11.dtd">
<svg version="1.1" xmlns="http://www.w3.org/2000/svg" xmlns:xlink="http://www.w3.org/1999/xlink" width="18" height="18" viewBox="0 0 18 18">
<path fill="#444444" d="M10.875 3.75h-4.125c-0.207 0-0.375 0.168-0.375 0.375s0.168 0.375 0.375 0.375h4.125c0.207 0 0.375-0.168 0.375-0.375s-0.168-0.375-0.375-0.375z"></path>
<path fill="#444444" d="M10.875 6h-4.125c-0.207 0-0.375 0.168-0.375 0.375s0.168 0.375 0.375 0.375h4.125c0.207 0 0.375-0.168 0.375-0.375s-0.168-0.375-0.375-0.375z"></path>
<path fill="#444444" d="M10.875 8.25h-4.125c-0.207 0-0.375 0.168-0.375 0.375s0.168 0.375 0.375 0.375h4.125c0.207 0 0.375-0.168 0.375-0.375s-0.168-0.375-0.375-0.375z"></path>
<path fill="#444444" d="M10.875 10.5h-4.125c-0.207 0-0.375 0.168-0.375 0.375s0.168 0.375 0.375 0.375h4.125c0.207 0 0.375-0.168 0.375-0.375s-0.168-0.375-0.375-0.375z"></path>
<path fill="#444444" d="M15.75 0c-0.085 0-0.167 0.016-0.25 0.026-0.040-0.014-0.080-0.026-0.125-0.026h-9c-1.448 0-2.625 1.178-2.625 2.625v10.125h-1.125c-1.448 0-2.625 1.178-2.625 2.625s1.178 2.625 2.625 2.625h9c1.448 0 2.625-1.178 2.625-2.625v-12.375h3.375c0.207 0 0.375-0.168 0.375-0.375 0-1.546-0.925-2.625-2.25-2.625zM2.625 17.25c-1.034 0-1.875-0.841-1.875-1.875s0.841-1.875 1.875-1.875h7.165c-0.487 0.477-0.79 1.141-0.79 1.875s0.302 1.398 0.79 1.875h-7.165zM13.5 15.375c0 1.034-0.841 1.875-1.875 1.875s-1.875-0.841-1.875-1.875 0.841-1.875 1.875-1.875c0.207 0 0.375-0.168 0.375-0.375s-0.168-0.375-0.375-0.375h-7.125v-10.125c0-1.034 0.841-1.875 1.875-1.875h7.71c-0.359 0.399-0.585 0.922-0.585 1.5v13.125zM14.25 2.25c0-0.828 0.673-1.5 1.5-1.5 0.793 0 1.357 0.589 1.476 1.5h-2.976z"></path>
</svg>
