<?xml version="1.0" encoding="utf-8"?>
<!-- Generated by IcoMoon.io -->
<!DOCTYPE svg PUBLIC "-//W3C//DTD SVG 1.1//EN" "http://www.w3.org/Graphics/SVG/1.1/DTD/svg11.dtd">
<svg version="1.1" xmlns="http://www.w3.org/2000/svg" xmlns:xlink="http://www.w3.org/1999/xlink" width="18" height="18" viewBox="0 0 18 18">
<path fill="#444444" d="M11.25 1.104l4.5 3.214v3.556c0 0.207 0.168 0.375 0.375 0.375s0.375-0.168 0.375-0.375v-3.75c0-0.122-0.058-0.235-0.157-0.305l-5.25-3.75c-0.007-0.005-0.016-0.002-0.023-0.008-0.058-0.036-0.122-0.062-0.196-0.062s-0.138 0.026-0.196 0.062c-0.007 0.004-0.016 0.002-0.022 0.008l-5.032 3.595-5.032-3.595c-0.114-0.082-0.265-0.093-0.39-0.028s-0.203 0.193-0.203 0.334v12c0 0.122 0.058 0.235 0.157 0.305l5.25 3.75c0.007 0.005 0.016 0.003 0.022 0.008 0.058 0.036 0.122 0.062 0.196 0.062s0.138-0.026 0.196-0.062c0.007-0.004 0.016-0.002 0.022-0.008l4.5-3.214c0.169-0.12 0.208-0.355 0.087-0.523s-0.354-0.208-0.523-0.088l-3.907 2.791v-11.079l4.5-3.214v6.772c0 0.207 0.168 0.375 0.375 0.375s0.375-0.168 0.375-0.375v-6.771zM0.75 1.104l4.5 3.214v11.078l-4.5-3.214v-11.079z"></path>
<path fill="#444444" d="M14.625 9c-1.861 0-3.375 1.514-3.375 3.375 0 1.742 2.771 5.112 3.087 5.49 0.071 0.085 0.177 0.135 0.288 0.135s0.217-0.049 0.288-0.135c0.316-0.378 3.087-3.748 3.087-5.49 0-1.861-1.514-3.375-3.375-3.375zM14.625 17.030c-0.934-1.175-2.625-3.536-2.625-4.655 0-1.448 1.178-2.625 2.625-2.625s2.625 1.178 2.625 2.625c0 1.118-1.692 3.48-2.625 4.655z"></path>
<path fill="#444444" d="M14.625 10.875c-0.827 0-1.5 0.673-1.5 1.5s0.673 1.5 1.5 1.5 1.5-0.673 1.5-1.5c0-0.827-0.673-1.5-1.5-1.5zM14.625 13.125c-0.413 0-0.75-0.337-0.75-0.75s0.337-0.75 0.75-0.75 0.75 0.337 0.75 0.75-0.337 0.75-0.75 0.75z"></path>
</svg>
