<?xml version="1.0" encoding="utf-8"?>
<!-- Generated by IcoMoon.io -->
<!DOCTYPE svg PUBLIC "-//W3C//DTD SVG 1.1//EN" "http://www.w3.org/Graphics/SVG/1.1/DTD/svg11.dtd">
<svg version="1.1" xmlns="http://www.w3.org/2000/svg" xmlns:xlink="http://www.w3.org/1999/xlink" width="18" height="18" viewBox="0 0 18 18">
<path fill="#444444" d="M17.625 2.972c-0.012 0-0.021 0.005-0.032 0.007l-8.498-2.217c-0.062-0.016-0.127-0.016-0.189 0l-8.498 2.217c-0.011-0.001-0.020-0.007-0.032-0.007-0.207 0-0.375 0.168-0.375 0.375v10.528c0 0.157 0.099 0.298 0.247 0.352l8.25 3c0.042 0.015 0.085 0.023 0.128 0.023 0.040 0 0.080-0.006 0.118-0.019l9-3c0.153-0.050 0.257-0.194 0.257-0.356v-10.528c0-0.207-0.168-0.375-0.375-0.375zM9 1.513l7.109 1.855-7.48 1.871-6.8-1.855 7.171-1.871zM0.75 3.866l7.5 2.045v10.428l-7.5-2.727v-9.746zM9 16.355v-10.438l8.25-2.062v9.75l-8.25 2.75z"></path>
</svg>
