<?xml version="1.0" encoding="utf-8"?>
<!-- Generated by IcoMoon.io -->
<!DOCTYPE svg PUBLIC "-//W3C//DTD SVG 1.1//EN" "http://www.w3.org/Graphics/SVG/1.1/DTD/svg11.dtd">
<svg version="1.1" xmlns="http://www.w3.org/2000/svg" xmlns:xlink="http://www.w3.org/1999/xlink" width="18" height="18" viewBox="0 0 18 18">
<path fill="#444444" d="M15.584 0.064c-0.104-0.071-0.235-0.082-0.351-0.036l-8.25 3.375c-0.141 0.058-0.233 0.195-0.233 0.347v8.625h-1.875c-1.448 0-2.625 1.178-2.625 2.625s1.178 2.625 2.625 2.625c1.398 0 2.625-1.227 2.625-2.625v-8.373l7.5-3.068v5.816h-1.875c-1.448 0-2.625 1.178-2.625 2.625s1.178 2.625 2.625 2.625c1.398 0 2.625-1.227 2.625-2.625v-11.625c0-0.125-0.062-0.242-0.166-0.311zM6.75 15c0 0.885-0.802 1.875-1.875 1.875-1.034 0-1.875-0.841-1.875-1.875s0.841-1.875 1.875-1.875h1.875v1.875zM7.5 5.817v-1.815l7.5-3.068v1.814l-7.5 3.069zM15 12c0 0.885-0.802 1.875-1.875 1.875-1.034 0-1.875-0.841-1.875-1.875s0.841-1.875 1.875-1.875h1.875v1.875z"></path>
</svg>
