<?xml version="1.0" encoding="utf-8"?>
<!-- Generated by IcoMoon.io -->
<!DOCTYPE svg PUBLIC "-//W3C//DTD SVG 1.1//EN" "http://www.w3.org/Graphics/SVG/1.1/DTD/svg11.dtd">
<svg version="1.1" xmlns="http://www.w3.org/2000/svg" xmlns:xlink="http://www.w3.org/1999/xlink" width="18" height="18" viewBox="0 0 18 18">
<path fill="#444444" d="M5.177 12.072c0.073 0.073 0.17 0.109 0.265 0.109s0.192-0.037 0.265-0.109l2.917-2.917 2.917 2.917c0.073 0.073 0.17 0.109 0.265 0.109s0.192-0.037 0.266-0.109c0.146-0.146 0.146-0.384 0-0.53l-2.918-2.917 2.917-2.917c0.146-0.146 0.146-0.384 0-0.53s-0.384-0.146-0.53 0l-2.917 2.917-2.917-2.917c-0.146-0.146-0.384-0.146-0.53 0s-0.146 0.384 0 0.53l2.917 2.917-2.917 2.917c-0.146 0.146-0.146 0.383 0 0.53z"></path>
<path fill="#444444" d="M16.875 0h-16.5c-0.207 0-0.375 0.168-0.375 0.375v16.5c0 0.207 0.168 0.375 0.375 0.375h16.5c0.207 0 0.375-0.168 0.375-0.375v-16.5c0-0.207-0.168-0.375-0.375-0.375zM16.5 16.5h-15.75v-15.75h15.75v15.75z"></path>
</svg>
