<?xml version="1.0" encoding="utf-8"?>
<!-- Generated by IcoMoon.io -->
<!DOCTYPE svg PUBLIC "-//W3C//DTD SVG 1.1//EN" "http://www.w3.org/Graphics/SVG/1.1/DTD/svg11.dtd">
<svg version="1.1" xmlns="http://www.w3.org/2000/svg" xmlns:xlink="http://www.w3.org/1999/xlink" width="18" height="18" viewBox="0 0 18 18">
<path fill="#444444" d="M17.891 17.36l-6.757-6.757c1.002-1.126 1.616-2.605 1.616-4.228 0-3.515-2.86-6.375-6.375-6.375s-6.375 2.86-6.375 6.375c0 3.515 2.86 6.375 6.375 6.375 1.623 0 3.101-0.614 4.228-1.617l6.757 6.757c0.073 0.073 0.17 0.11 0.266 0.11s0.192-0.037 0.265-0.109c0.146-0.146 0.146-0.384 0-0.531zM0.75 6.375c0-3.101 2.523-5.625 5.625-5.625s5.625 2.524 5.625 5.625c0 3.102-2.523 5.625-5.625 5.625s-5.625-2.523-5.625-5.625z"></path>
</svg>
