<?xml version="1.0" encoding="utf-8"?>
<!-- Generated by IcoMoon.io -->
<!DOCTYPE svg PUBLIC "-//W3C//DTD SVG 1.1//EN" "http://www.w3.org/Graphics/SVG/1.1/DTD/svg11.dtd">
<svg version="1.1" xmlns="http://www.w3.org/2000/svg" xmlns:xlink="http://www.w3.org/1999/xlink" width="18" height="18" viewBox="0 0 18 18">
<path fill="#444444" d="M15.375 0h-12.75c-0.6 0-1.125 0.525-1.125 1.125v15.75c0 0.6 0.525 1.125 1.125 1.125h12.75c0.225 0 0.375-0.15 0.375-0.375v-17.25c0-0.225-0.15-0.375-0.375-0.375zM3.75 17.25h-1.125c-0.225 0-0.375-0.15-0.375-0.375v-15.75c0-0.225 0.15-0.375 0.375-0.375h1.125v16.5zM15 17.25h-10.5v-16.5h10.5v16.5z"></path>
<path fill="#444444" d="M11.625 6.975v-1.65l-0.675-0.675h-2.325v3.075h2.325l0.675-0.75zM9.375 6.9v-1.5h1.2l0.225 0.225v0.975l-0.225 0.225h-1.2z"></path>
<path fill="#444444" d="M9.975 10.65h-0.6v-1.275h2.775l1.65-1.65v-3.15l-1.65-1.65h-6.375v2.475h0.6v5.25h-0.6v2.475h4.2v-2.475zM9.15 11.475v0.9h-2.55v-0.9h0.6v-6.825h-0.6v-0.975h5.25l1.275 1.275v2.4l-1.275 1.275h-3.225v2.925h0.525z"></path>
</svg>
