<?xml version="1.0" encoding="utf-8"?>
<!-- Generated by IcoMoon.io -->
<!DOCTYPE svg PUBLIC "-//W3C//DTD SVG 1.1//EN" "http://www.w3.org/Graphics/SVG/1.1/DTD/svg11.dtd">
<svg version="1.1" xmlns="http://www.w3.org/2000/svg" xmlns:xlink="http://www.w3.org/1999/xlink" width="18" height="18" viewBox="0 0 18 18">
<path fill="#444444" d="M15.375 0h-12.75c-0.62 0-1.125 0.505-1.125 1.125v15.75c0 0.62 0.505 1.125 1.125 1.125h12.75c0.207 0 0.375-0.168 0.375-0.375v-17.25c0-0.207-0.168-0.375-0.375-0.375zM2.25 16.875v-15.75c0-0.207 0.169-0.375 0.375-0.375h1.125v16.5h-1.125c-0.206 0-0.375-0.168-0.375-0.375zM15 17.25h-10.5v-16.5h10.5v16.5z"></path>
<path fill="#444444" d="M7.875 6.75h4.5c0.207 0 0.375-0.168 0.375-0.375v-2.25c0-0.207-0.168-0.375-0.375-0.375h-4.5c-0.207 0-0.375 0.168-0.375 0.375v2.25c0 0.207 0.168 0.375 0.375 0.375zM8.25 4.5h3.75v1.5h-3.75v-1.5z"></path>
</svg>
