<?xml version="1.0" encoding="utf-8"?>
<!-- Generated by IcoMoon.io -->
<!DOCTYPE svg PUBLIC "-//W3C//DTD SVG 1.1//EN" "http://www.w3.org/Graphics/SVG/1.1/DTD/svg11.dtd">
<svg version="1.1" xmlns="http://www.w3.org/2000/svg" xmlns:xlink="http://www.w3.org/1999/xlink" width="18" height="18" viewBox="0 0 18 18">
<path fill="#444444" d="M4.125 9h4.125v4.125c0 0.207 0.168 0.375 0.375 0.375s0.375-0.168 0.375-0.375v-4.125h4.125c0.207 0 0.375-0.168 0.375-0.375s-0.168-0.375-0.375-0.375h-4.125v-4.125c0-0.207-0.168-0.375-0.375-0.375s-0.375 0.168-0.375 0.375v4.125h-4.125c-0.207 0-0.375 0.168-0.375 0.375s0.168 0.375 0.375 0.375z"></path>
<path fill="#444444" d="M16.875 0h-16.5c-0.207 0-0.375 0.168-0.375 0.375v16.5c0 0.207 0.168 0.375 0.375 0.375h16.5c0.207 0 0.375-0.168 0.375-0.375v-16.5c0-0.207-0.168-0.375-0.375-0.375zM16.5 16.5h-15.75v-15.75h15.75v15.75z"></path>
</svg>
