<?xml version="1.0" encoding="utf-8"?>
<!-- Generated by IcoMoon.io -->
<!DOCTYPE svg PUBLIC "-//W3C//DTD SVG 1.1//EN" "http://www.w3.org/Graphics/SVG/1.1/DTD/svg11.dtd">
<svg version="1.1" xmlns="http://www.w3.org/2000/svg" xmlns:xlink="http://www.w3.org/1999/xlink" width="18" height="18" viewBox="0 0 18 18">
<path fill="#444444" d="M2.25 6.75c-1.241 0-2.25 1.009-2.25 2.25s1.009 2.25 2.25 2.25 2.25-1.009 2.25-2.25-1.009-2.25-2.25-2.25zM2.25 10.5c-0.827 0-1.5-0.673-1.5-1.5s0.673-1.5 1.5-1.5 1.5 0.673 1.5 1.5c0 0.827-0.673 1.5-1.5 1.5z"></path>
<path fill="#444444" d="M9 6.75c-1.241 0-2.25 1.009-2.25 2.25s1.009 2.25 2.25 2.25 2.25-1.009 2.25-2.25-1.009-2.25-2.25-2.25zM9 10.5c-0.827 0-1.5-0.673-1.5-1.5s0.673-1.5 1.5-1.5 1.5 0.673 1.5 1.5c0 0.827-0.673 1.5-1.5 1.5z"></path>
<path fill="#444444" d="M15.75 6.75c-1.241 0-2.25 1.009-2.25 2.25s1.009 2.25 2.25 2.25 2.25-1.009 2.25-2.25-1.009-2.25-2.25-2.25zM15.75 10.5c-0.827 0-1.5-0.673-1.5-1.5s0.673-1.5 1.5-1.5 1.5 0.673 1.5 1.5c0 0.827-0.673 1.5-1.5 1.5z"></path>
</svg>
