<?xml version="1.0" encoding="utf-8"?>
<!-- Generated by IcoMoon.io -->
<!DOCTYPE svg PUBLIC "-//W3C//DTD SVG 1.1//EN" "http://www.w3.org/Graphics/SVG/1.1/DTD/svg11.dtd">
<svg version="1.1" xmlns="http://www.w3.org/2000/svg" xmlns:xlink="http://www.w3.org/1999/xlink" width="18" height="18" viewBox="0 0 18 18">
<path fill="#444444" d="M10.875 10.5h-7.5c-0.207 0-0.375 0.168-0.375 0.375s0.168 0.375 0.375 0.375h7.5c0.207 0 0.375-0.168 0.375-0.375s-0.168-0.375-0.375-0.375z"></path>
<path fill="#444444" d="M3.375 7.5c1.861 0 3.375-1.514 3.375-3.375s-1.514-3.375-3.375-3.375-3.375 1.514-3.375 3.375 1.514 3.375 3.375 3.375zM3.375 1.5c1.448 0 2.625 1.178 2.625 2.625s-1.178 2.625-2.625 2.625-2.625-1.178-2.625-2.625 1.178-2.625 2.625-2.625z"></path>
<path fill="#444444" d="M9.75 7.5c1.241 0 2.25-1.009 2.25-2.25s-1.009-2.25-2.25-2.25-2.25 1.009-2.25 2.25 1.009 2.25 2.25 2.25zM9.75 3.75c0.827 0 1.5 0.672 1.5 1.5s-0.673 1.5-1.5 1.5-1.5-0.673-1.5-1.5c0-0.828 0.673-1.5 1.5-1.5z"></path>
<path fill="#444444" d="M17.629 9.368c-0.235-0.156-0.541-0.175-0.841-0.050l-3.288 1.37v-1.313c0-0.62-0.505-1.125-1.125-1.125h-10.5c-0.62 0-1.125 0.505-1.125 1.125v6c0 0.62 0.505 1.125 1.125 1.125h10.5c0.62 0 1.125-0.505 1.125-1.125v-1.313l3.288 1.37c0.131 0.055 0.264 0.081 0.392 0.081 0.163 0 0.317-0.044 0.449-0.132 0.236-0.156 0.371-0.432 0.371-0.757v-4.5c0-0.325-0.135-0.6-0.371-0.757zM12.375 15.75h-10.5c-0.207 0-0.375-0.168-0.375-0.375v-6c0-0.207 0.168-0.375 0.375-0.375h10.5c0.207 0 0.375 0.168 0.375 0.375v1.873c0 0.001 0 0.001 0 0.001v4.127c0 0.207-0.168 0.375-0.375 0.375zM17.25 14.625c0 0.080-0.022 0.123-0.037 0.133s-0.062 0.014-0.136-0.017l-3.577-1.49v-1.75l3.578-1.49c0.073-0.031 0.122-0.028 0.136-0.017 0.015 0.009 0.037 0.053 0.037 0.132v4.5z"></path>
</svg>
