<?xml version="1.0" encoding="utf-8"?>
<!-- Generated by IcoMoon.io -->
<!DOCTYPE svg PUBLIC "-//W3C//DTD SVG 1.1//EN" "http://www.w3.org/Graphics/SVG/1.1/DTD/svg11.dtd">
<svg version="1.1" xmlns="http://www.w3.org/2000/svg" xmlns:xlink="http://www.w3.org/1999/xlink" width="18" height="18" viewBox="0 0 18 18">
<path fill="#444444" d="M17.625 0h-17.25c-0.207 0-0.375 0.168-0.375 0.375v17.25c0 0.207 0.168 0.375 0.375 0.375h17.25c0.207 0 0.375-0.168 0.375-0.375v-17.25c0-0.207-0.168-0.375-0.375-0.375zM17.25 0.75v12h-0.518l-2.548-5.096c-0.278-0.557-0.838-0.904-1.461-0.904-0.578 0-1.119 0.31-1.41 0.81l-1.979 3.392c-0.583-0.703-1.828-1.952-3.334-1.952-1.849 0-3.233 2.851-3.624 3.75h-1.626v-12h16.5zM15.893 12.75h-12.692c0.544-1.148 1.662-3 2.799-3 1.649 0 3.049 2.062 3.063 2.083 0.071 0.107 0.184 0.158 0.323 0.167 0.129-0.004 0.248-0.074 0.313-0.186l2.261-3.876c0.158-0.27 0.449-0.438 0.762-0.438 0.337 0 0.64 0.188 0.79 0.488l2.381 4.762zM0.75 17.25v-3.75h16.5v3.75h-16.5z"></path>
<path fill="#444444" d="M4.875 6.75h2.25c1.241 0 2.25-1.009 2.25-2.25s-1.009-2.25-2.25-2.25c-0.973 0-1.81 0.613-2.118 1.506-0.872-0.079-1.632 0.622-1.632 1.494 0 0.827 0.673 1.5 1.5 1.5zM4.875 4.5c0.089 0 0.177 0.017 0.271 0.053 0.104 0.040 0.224 0.031 0.322-0.025s0.165-0.154 0.183-0.266c0.117-0.732 0.737-1.263 1.475-1.263 0.827 0 1.5 0.673 1.5 1.5s-0.673 1.5-1.5 1.5h-2.25c-0.413 0-0.75-0.337-0.75-0.75s0.337-0.75 0.75-0.75z"></path>
</svg>
